<svg xmlns="http://www.w3.org/2000/svg" xmlns:xlink="http://www.w3.org/1999/xlink" width="500" zoomAndPan="magnify" viewBox="0 0 375 374.999991" height="500" preserveAspectRatio="xMidYMid meet" version="1.2"><defs><clipPath id="22cbeffa7a"><path d="M 22 114 L 138.183594 114 L 138.183594 238 L 22 238 Z M 22 114 "/></clipPath><clipPath id="5fb60f50cb"><path d="M 3.183594 119 L 57 119 L 57 218 L 3.183594 218 Z M 3.183594 119 "/></clipPath></defs><g id="f87b538e11"><path style=" stroke:none;fill-rule:nonzero;fill:#000000;fill-opacity:1;" d="M 90.394531 126.28125 C 90.394531 126.605469 90.363281 126.929688 90.296875 127.25 C 90.234375 127.570312 90.140625 127.882812 90.015625 128.183594 C 89.890625 128.484375 89.738281 128.773438 89.554688 129.042969 C 89.375 129.316406 89.167969 129.566406 88.9375 129.796875 C 88.707031 130.027344 88.453125 130.234375 88.183594 130.417969 C 87.910156 130.597656 87.625 130.75 87.324219 130.875 C 87.019531 131 86.710938 131.09375 86.390625 131.160156 C 86.070312 131.222656 85.746094 131.253906 85.417969 131.253906 C 85.09375 131.253906 84.769531 131.222656 84.449219 131.160156 C 84.128906 131.09375 83.816406 131 83.515625 130.875 C 83.210938 130.75 82.925781 130.597656 82.65625 130.417969 C 82.382812 130.234375 82.132812 130.027344 81.902344 129.796875 C 81.667969 129.566406 81.464844 129.316406 81.28125 129.042969 C 81.101562 128.773438 80.945312 128.484375 80.820312 128.183594 C 80.695312 127.882812 80.601562 127.570312 80.539062 127.25 C 80.476562 126.929688 80.441406 126.605469 80.441406 126.28125 C 80.441406 125.953125 80.476562 125.628906 80.539062 125.308594 C 80.601562 124.988281 80.695312 124.675781 80.820312 124.375 C 80.945312 124.074219 81.101562 123.789062 81.28125 123.515625 C 81.464844 123.242188 81.667969 122.992188 81.902344 122.761719 C 82.132812 122.53125 82.382812 122.324219 82.65625 122.144531 C 82.925781 121.960938 83.210938 121.808594 83.515625 121.683594 C 83.816406 121.558594 84.128906 121.464844 84.449219 121.398438 C 84.769531 121.335938 85.09375 121.304688 85.417969 121.304688 C 85.746094 121.304688 86.070312 121.335938 86.390625 121.398438 C 86.710938 121.464844 87.019531 121.558594 87.324219 121.683594 C 87.625 121.808594 87.910156 121.960938 88.183594 122.144531 C 88.453125 122.324219 88.707031 122.53125 88.9375 122.761719 C 89.167969 122.992188 89.375 123.242188 89.554688 123.515625 C 89.738281 123.789062 89.890625 124.074219 90.015625 124.375 C 90.140625 124.675781 90.234375 124.988281 90.296875 125.308594 C 90.363281 125.628906 90.394531 125.953125 90.394531 126.28125 Z M 90.394531 126.28125 "/><path style=" stroke:none;fill-rule:nonzero;fill:#000000;fill-opacity:1;" d="M 119.734375 134.859375 C 119.734375 135.1875 119.703125 135.511719 119.640625 135.832031 C 119.574219 136.152344 119.480469 136.460938 119.355469 136.761719 C 119.230469 137.066406 119.078125 137.351562 118.894531 137.625 C 118.714844 137.894531 118.507812 138.148438 118.277344 138.378906 C 118.046875 138.609375 117.796875 138.816406 117.523438 138.996094 C 117.25 139.179688 116.964844 139.332031 116.664062 139.457031 C 116.363281 139.582031 116.050781 139.675781 115.730469 139.738281 C 115.410156 139.804688 115.085938 139.835938 114.757812 139.835938 C 114.433594 139.835938 114.109375 139.804688 113.789062 139.738281 C 113.46875 139.675781 113.15625 139.582031 112.855469 139.457031 C 112.554688 139.332031 112.265625 139.179688 111.996094 138.996094 C 111.722656 138.816406 111.472656 138.609375 111.242188 138.378906 C 111.011719 138.148438 110.804688 137.894531 110.621094 137.625 C 110.441406 137.351562 110.289062 137.066406 110.164062 136.761719 C 110.039062 136.460938 109.945312 136.152344 109.878906 135.832031 C 109.816406 135.511719 109.785156 135.1875 109.785156 134.859375 C 109.785156 134.53125 109.816406 134.210938 109.878906 133.890625 C 109.945312 133.570312 110.039062 133.257812 110.164062 132.957031 C 110.289062 132.652344 110.441406 132.367188 110.621094 132.09375 C 110.804688 131.824219 111.011719 131.574219 111.242188 131.339844 C 111.472656 131.109375 111.722656 130.90625 111.996094 130.722656 C 112.265625 130.542969 112.554688 130.386719 112.855469 130.261719 C 113.15625 130.136719 113.46875 130.042969 113.789062 129.980469 C 114.109375 129.917969 114.433594 129.882812 114.757812 129.882812 C 115.085938 129.882812 115.410156 129.917969 115.730469 129.980469 C 116.050781 130.042969 116.363281 130.136719 116.664062 130.261719 C 116.964844 130.386719 117.25 130.542969 117.523438 130.722656 C 117.796875 130.90625 118.046875 131.109375 118.277344 131.339844 C 118.507812 131.574219 118.714844 131.824219 118.894531 132.09375 C 119.078125 132.367188 119.230469 132.652344 119.355469 132.957031 C 119.480469 133.257812 119.574219 133.570312 119.640625 133.890625 C 119.703125 134.210938 119.734375 134.53125 119.734375 134.859375 Z M 119.734375 134.859375 "/><path style=" stroke:none;fill-rule:nonzero;fill:#000000;fill-opacity:1;" d="M 115.734375 135.167969 L 113.691406 134.570312 L 118.683594 117.40625 C 119.8125 113.527344 119.449219 109.46875 117.65625 105.984375 C 115.878906 102.515625 112.902344 100.023438 109.277344 98.96875 C 105.652344 97.914062 101.804688 98.421875 98.441406 100.394531 C 95.058594 102.382812 92.574219 105.609375 91.449219 109.484375 L 86.457031 126.648438 L 84.414062 126.054688 L 89.40625 108.890625 C 90.6875 104.488281 93.511719 100.820312 97.363281 98.558594 C 101.238281 96.289062 105.679688 95.703125 109.875 96.925781 C 114.070312 98.148438 117.503906 101.019531 119.554688 105.011719 C 121.59375 108.988281 122.011719 113.601562 120.730469 118 Z M 115.734375 135.167969 "/><g clip-rule="nonzero" clip-path="url(#22cbeffa7a)"><path style=" stroke:none;fill-rule:nonzero;fill:#000000;fill-opacity:1;" d="M 135.882812 161.191406 C 136.171875 155.566406 136.878906 144.210938 137.210938 138.589844 C 137.210938 138.589844 137.613281 139.089844 137.613281 139.089844 L 127.761719 137.820312 C 124.957031 137.484375 120.804688 136.625 117.957031 136.15625 C 98.355469 132.582031 79.257812 126.339844 61.167969 118.007812 C 61.167969 118.007812 62.980469 117.25 62.980469 117.25 C 57.707031 132.191406 50.109375 153.855469 44.6875 168.996094 C 38.445312 186.191406 31.675781 203.179688 25.691406 220.453125 C 25.691406 220.453125 24.582031 218.714844 24.582031 218.714844 C 28.730469 219.199219 32.871094 219.699219 37.011719 220.222656 C 57.730469 222.761719 78.367188 225.984375 98.695312 230.761719 C 106.828125 232.648438 114.902344 234.855469 122.730469 237.738281 C 110.789062 233.996094 98.503906 231.644531 86.199219 229.5 C 78.09375 228.03125 69.679688 226.660156 61.53125 225.652344 C 49.582031 224.117188 36.339844 222.636719 24.296875 221.339844 C 24.296875 221.339844 22.671875 221.164062 22.671875 221.164062 C 22.671875 221.164062 23.191406 219.605469 23.191406 219.605469 C 28.953125 202.222656 35.707031 185.199219 41.890625 167.984375 C 47.621094 152.222656 55.265625 130.511719 60.984375 114.980469 C 79.222656 123.710938 98.464844 130.492188 118.265625 134.636719 C 121.058594 135.191406 125.179688 136.140625 127.964844 136.582031 C 127.964844 136.582031 137.746094 138.15625 137.746094 138.15625 C 137.746094 138.15625 138.191406 138.230469 138.191406 138.230469 C 137.609375 144.074219 136.5 155.355469 135.882812 161.191406 Z M 135.882812 161.191406 "/></g><g clip-rule="nonzero" clip-path="url(#5fb60f50cb)"><path style=" stroke:none;fill-rule:nonzero;fill:#000000;fill-opacity:1;" d="M 3.175781 205.957031 C 21.679688 177.589844 39.84375 148.921875 56.773438 119.5625 L 18.359375 217.261719 C 18.367188 217.261719 3.175781 205.957031 3.175781 205.957031 Z M 3.175781 205.957031 "/></g><g style="fill:#000000;fill-opacity:1;"><g transform="translate(96.971795, 222.095596)"><path style="stroke:none" d="M 3.453125 0.0625 C 2.867188 0.0625 2.304688 -0.03125 1.765625 -0.21875 C 1.234375 -0.40625 0.820312 -0.648438 0.53125 -0.953125 L 0.859375 -1.59375 C 1.140625 -1.3125 1.515625 -1.082031 1.984375 -0.90625 C 2.460938 -0.726562 2.953125 -0.640625 3.453125 -0.640625 C 4.160156 -0.640625 4.6875 -0.769531 5.03125 -1.03125 C 5.382812 -1.289062 5.5625 -1.625 5.5625 -2.03125 C 5.5625 -2.351562 5.46875 -2.609375 5.28125 -2.796875 C 5.09375 -2.984375 4.859375 -3.125 4.578125 -3.21875 C 4.296875 -3.320312 3.910156 -3.4375 3.421875 -3.5625 C 2.828125 -3.707031 2.351562 -3.847656 2 -3.984375 C 1.644531 -4.128906 1.34375 -4.34375 1.09375 -4.625 C 0.84375 -4.90625 0.71875 -5.289062 0.71875 -5.78125 C 0.71875 -6.175781 0.820312 -6.535156 1.03125 -6.859375 C 1.238281 -7.191406 1.5625 -7.453125 2 -7.640625 C 2.4375 -7.835938 2.976562 -7.9375 3.625 -7.9375 C 4.070312 -7.9375 4.507812 -7.875 4.9375 -7.75 C 5.375 -7.632812 5.75 -7.46875 6.0625 -7.25 L 5.78125 -6.578125 C 5.445312 -6.796875 5.09375 -6.957031 4.71875 -7.0625 C 4.34375 -7.175781 3.976562 -7.234375 3.625 -7.234375 C 2.9375 -7.234375 2.414062 -7.097656 2.0625 -6.828125 C 1.71875 -6.566406 1.546875 -6.226562 1.546875 -5.8125 C 1.546875 -5.488281 1.640625 -5.234375 1.828125 -5.046875 C 2.015625 -4.859375 2.253906 -4.710938 2.546875 -4.609375 C 2.835938 -4.503906 3.226562 -4.394531 3.71875 -4.28125 C 4.289062 -4.132812 4.753906 -3.988281 5.109375 -3.84375 C 5.460938 -3.707031 5.765625 -3.5 6.015625 -3.21875 C 6.265625 -2.9375 6.390625 -2.554688 6.390625 -2.078125 C 6.390625 -1.679688 6.28125 -1.316406 6.0625 -0.984375 C 5.851562 -0.660156 5.523438 -0.40625 5.078125 -0.21875 C 4.640625 -0.03125 4.097656 0.0625 3.453125 0.0625 Z M 3.453125 0.0625 "/></g></g><g style="fill:#000000;fill-opacity:1;"><g transform="translate(103.886732, 222.095596)"><path style="stroke:none" d="M 1.109375 -5.921875 L 1.90625 -5.921875 L 1.90625 0 L 1.109375 0 Z M 1.515625 -7.21875 C 1.347656 -7.21875 1.207031 -7.269531 1.09375 -7.375 C 0.988281 -7.488281 0.9375 -7.625 0.9375 -7.78125 C 0.9375 -7.9375 0.988281 -8.066406 1.09375 -8.171875 C 1.207031 -8.285156 1.347656 -8.34375 1.515625 -8.34375 C 1.679688 -8.34375 1.816406 -8.285156 1.921875 -8.171875 C 2.035156 -8.066406 2.09375 -7.941406 2.09375 -7.796875 C 2.09375 -7.628906 2.035156 -7.488281 1.921875 -7.375 C 1.816406 -7.269531 1.679688 -7.21875 1.515625 -7.21875 Z M 1.515625 -7.21875 "/></g></g><g style="fill:#000000;fill-opacity:1;"><g transform="translate(106.911315, 222.095596)"><path style="stroke:none" d="M 8.5 -5.96875 C 9.238281 -5.96875 9.816406 -5.753906 10.234375 -5.328125 C 10.660156 -4.898438 10.875 -4.269531 10.875 -3.4375 L 10.875 0 L 10.078125 0 L 10.078125 -3.359375 C 10.078125 -3.972656 9.925781 -4.441406 9.625 -4.765625 C 9.332031 -5.085938 8.914062 -5.25 8.375 -5.25 C 7.757812 -5.25 7.273438 -5.054688 6.921875 -4.671875 C 6.578125 -4.296875 6.40625 -3.773438 6.40625 -3.109375 L 6.40625 0 L 5.609375 0 L 5.609375 -3.359375 C 5.609375 -3.972656 5.457031 -4.441406 5.15625 -4.765625 C 4.863281 -5.085938 4.441406 -5.25 3.890625 -5.25 C 3.285156 -5.25 2.800781 -5.054688 2.4375 -4.671875 C 2.082031 -4.296875 1.90625 -3.773438 1.90625 -3.109375 L 1.90625 0 L 1.109375 0 L 1.109375 -5.921875 L 1.875 -5.921875 L 1.875 -4.84375 C 2.082031 -5.195312 2.375 -5.472656 2.75 -5.671875 C 3.125 -5.867188 3.554688 -5.96875 4.046875 -5.96875 C 4.546875 -5.96875 4.976562 -5.859375 5.34375 -5.640625 C 5.707031 -5.429688 5.976562 -5.125 6.15625 -4.71875 C 6.375 -5.101562 6.6875 -5.40625 7.09375 -5.625 C 7.5 -5.851562 7.96875 -5.96875 8.5 -5.96875 Z M 8.5 -5.96875 "/></g></g><g style="fill:#000000;fill-opacity:1;"><g transform="translate(118.840989, 222.095596)"><path style="stroke:none" d="M 4.15625 -5.96875 C 4.71875 -5.96875 5.222656 -5.835938 5.671875 -5.578125 C 6.117188 -5.328125 6.46875 -4.972656 6.71875 -4.515625 C 6.976562 -4.066406 7.109375 -3.546875 7.109375 -2.953125 C 7.109375 -2.359375 6.976562 -1.832031 6.71875 -1.375 C 6.46875 -0.925781 6.117188 -0.570312 5.671875 -0.3125 C 5.222656 -0.0625 4.71875 0.0625 4.15625 0.0625 C 3.675781 0.0625 3.242188 -0.0351562 2.859375 -0.234375 C 2.472656 -0.441406 2.15625 -0.734375 1.90625 -1.109375 L 1.90625 2.1875 L 1.109375 2.1875 L 1.109375 -5.921875 L 1.875 -5.921875 L 1.875 -4.75 C 2.113281 -5.132812 2.429688 -5.429688 2.828125 -5.640625 C 3.222656 -5.859375 3.664062 -5.96875 4.15625 -5.96875 Z M 4.109375 -0.65625 C 4.515625 -0.65625 4.882812 -0.75 5.21875 -0.9375 C 5.5625 -1.125 5.828125 -1.394531 6.015625 -1.75 C 6.210938 -2.101562 6.3125 -2.503906 6.3125 -2.953125 C 6.3125 -3.410156 6.210938 -3.8125 6.015625 -4.15625 C 5.828125 -4.507812 5.5625 -4.78125 5.21875 -4.96875 C 4.882812 -5.164062 4.515625 -5.265625 4.109375 -5.265625 C 3.679688 -5.265625 3.300781 -5.164062 2.96875 -4.96875 C 2.632812 -4.78125 2.375 -4.507812 2.1875 -4.15625 C 2 -3.8125 1.90625 -3.410156 1.90625 -2.953125 C 1.90625 -2.503906 2 -2.101562 2.1875 -1.75 C 2.375 -1.394531 2.632812 -1.125 2.96875 -0.9375 C 3.300781 -0.75 3.679688 -0.65625 4.109375 -0.65625 Z M 4.109375 -0.65625 "/></g></g><g style="fill:#000000;fill-opacity:1;"><g transform="translate(126.464292, 222.095596)"><path style="stroke:none" d="M 1.109375 -8.34375 L 1.90625 -8.34375 L 1.90625 0 L 1.109375 0 Z M 1.109375 -8.34375 "/></g></g><g style="fill:#000000;fill-opacity:1;"><g transform="translate(129.488875, 222.095596)"><path style="stroke:none" d="M 1.109375 -5.921875 L 1.90625 -5.921875 L 1.90625 0 L 1.109375 0 Z M 1.515625 -7.21875 C 1.347656 -7.21875 1.207031 -7.269531 1.09375 -7.375 C 0.988281 -7.488281 0.9375 -7.625 0.9375 -7.78125 C 0.9375 -7.9375 0.988281 -8.066406 1.09375 -8.171875 C 1.207031 -8.285156 1.347656 -8.34375 1.515625 -8.34375 C 1.679688 -8.34375 1.816406 -8.285156 1.921875 -8.171875 C 2.035156 -8.066406 2.09375 -7.941406 2.09375 -7.796875 C 2.09375 -7.628906 2.035156 -7.488281 1.921875 -7.375 C 1.816406 -7.269531 1.679688 -7.21875 1.515625 -7.21875 Z M 1.515625 -7.21875 "/></g></g><g style="fill:#000000;fill-opacity:1;"><g transform="translate(132.513458, 222.095596)"><path style="stroke:none" d="M 3.078125 -7.734375 C 2.722656 -7.734375 2.457031 -7.640625 2.28125 -7.453125 C 2.113281 -7.265625 2.03125 -6.984375 2.03125 -6.609375 L 2.03125 -5.921875 L 3.84375 -5.921875 L 3.84375 -5.25 L 2.046875 -5.25 L 2.046875 0 L 1.25 0 L 1.25 -5.25 L 0.1875 -5.25 L 0.1875 -5.921875 L 1.25 -5.921875 L 1.25 -6.65625 C 1.25 -7.1875 1.40625 -7.609375 1.71875 -7.921875 C 2.03125 -8.242188 2.46875 -8.40625 3.03125 -8.40625 C 3.257812 -8.40625 3.476562 -8.375 3.6875 -8.3125 C 3.894531 -8.25 4.070312 -8.15625 4.21875 -8.03125 L 3.953125 -7.4375 C 3.710938 -7.632812 3.421875 -7.734375 3.078125 -7.734375 Z M 3.078125 -7.734375 "/></g></g><g style="fill:#000000;fill-opacity:1;"><g transform="translate(136.437565, 222.095596)"><path style="stroke:none" d="M 6.09375 -5.921875 L 3.125 0.703125 C 2.882812 1.265625 2.609375 1.660156 2.296875 1.890625 C 1.984375 2.117188 1.601562 2.234375 1.15625 2.234375 C 0.875 2.234375 0.609375 2.1875 0.359375 2.09375 C 0.109375 2.007812 -0.101562 1.878906 -0.28125 1.703125 L 0.09375 1.109375 C 0.394531 1.398438 0.753906 1.546875 1.171875 1.546875 C 1.441406 1.546875 1.671875 1.472656 1.859375 1.328125 C 2.054688 1.179688 2.234375 0.925781 2.390625 0.5625 L 2.65625 -0.015625 L 0.015625 -5.921875 L 0.84375 -5.921875 L 3.078125 -0.890625 L 5.296875 -5.921875 Z M 6.09375 -5.921875 "/></g></g><g style="fill:#000000;fill-opacity:1;"><g transform="translate(142.531707, 222.095596)"><path style="stroke:none" d=""/></g></g><g style="fill:#000000;fill-opacity:1;"><g transform="translate(145.477587, 222.095596)"><path style="stroke:none" d="M 3.984375 -2.71875 L 3.984375 0 L 3.15625 0 L 3.15625 -2.71875 L 0.015625 -7.875 L 0.90625 -7.875 L 3.59375 -3.453125 L 6.296875 -7.875 L 7.125 -7.875 Z M 3.984375 -2.71875 "/></g></g><g style="fill:#000000;fill-opacity:1;"><g transform="translate(151.942678, 222.095596)"><path style="stroke:none" d="M 3.53125 0.0625 C 2.957031 0.0625 2.441406 -0.0664062 1.984375 -0.328125 C 1.535156 -0.585938 1.175781 -0.945312 0.90625 -1.40625 C 0.644531 -1.863281 0.515625 -2.378906 0.515625 -2.953125 C 0.515625 -3.535156 0.644531 -4.054688 0.90625 -4.515625 C 1.175781 -4.972656 1.535156 -5.328125 1.984375 -5.578125 C 2.441406 -5.835938 2.957031 -5.96875 3.53125 -5.96875 C 4.101562 -5.96875 4.617188 -5.835938 5.078125 -5.578125 C 5.535156 -5.328125 5.890625 -4.972656 6.140625 -4.515625 C 6.398438 -4.054688 6.53125 -3.535156 6.53125 -2.953125 C 6.53125 -2.378906 6.398438 -1.863281 6.140625 -1.40625 C 5.890625 -0.945312 5.535156 -0.585938 5.078125 -0.328125 C 4.617188 -0.0664062 4.101562 0.0625 3.53125 0.0625 Z M 3.53125 -0.65625 C 3.945312 -0.65625 4.320312 -0.75 4.65625 -0.9375 C 4.988281 -1.125 5.25 -1.394531 5.4375 -1.75 C 5.625 -2.101562 5.71875 -2.503906 5.71875 -2.953125 C 5.71875 -3.410156 5.625 -3.8125 5.4375 -4.15625 C 5.25 -4.507812 4.988281 -4.78125 4.65625 -4.96875 C 4.320312 -5.164062 3.945312 -5.265625 3.53125 -5.265625 C 3.113281 -5.265625 2.738281 -5.164062 2.40625 -4.96875 C 2.070312 -4.78125 1.804688 -4.507812 1.609375 -4.15625 C 1.421875 -3.8125 1.328125 -3.410156 1.328125 -2.953125 C 1.328125 -2.503906 1.421875 -2.101562 1.609375 -1.75 C 1.804688 -1.394531 2.070312 -1.125 2.40625 -0.9375 C 2.738281 -0.75 3.113281 -0.65625 3.53125 -0.65625 Z M 3.53125 -0.65625 "/></g></g><g style="fill:#000000;fill-opacity:1;"><g transform="translate(158.992546, 222.095596)"><path style="stroke:none" d="M 6.453125 -5.921875 L 6.453125 0 L 5.6875 0 L 5.6875 -1.078125 C 5.46875 -0.722656 5.175781 -0.441406 4.8125 -0.234375 C 4.445312 -0.0351562 4.03125 0.0625 3.5625 0.0625 C 2.78125 0.0625 2.164062 -0.148438 1.71875 -0.578125 C 1.28125 -1.015625 1.0625 -1.648438 1.0625 -2.484375 L 1.0625 -5.921875 L 1.859375 -5.921875 L 1.859375 -2.5625 C 1.859375 -1.9375 2.007812 -1.460938 2.3125 -1.140625 C 2.625 -0.816406 3.066406 -0.65625 3.640625 -0.65625 C 4.253906 -0.65625 4.738281 -0.84375 5.09375 -1.21875 C 5.457031 -1.601562 5.640625 -2.132812 5.640625 -2.8125 L 5.640625 -5.921875 Z M 6.453125 -5.921875 "/></g></g><g style="fill:#000000;fill-opacity:1;"><g transform="translate(166.559622, 222.095596)"><path style="stroke:none" d="M 1.875 -4.765625 C 2.0625 -5.160156 2.34375 -5.457031 2.71875 -5.65625 C 3.09375 -5.863281 3.550781 -5.96875 4.09375 -5.96875 L 4.09375 -5.1875 L 3.90625 -5.203125 C 3.28125 -5.203125 2.789062 -5.007812 2.4375 -4.625 C 2.082031 -4.238281 1.90625 -3.703125 1.90625 -3.015625 L 1.90625 0 L 1.109375 0 L 1.109375 -5.921875 L 1.875 -5.921875 Z M 1.875 -4.765625 "/></g></g><g style="fill:#000000;fill-opacity:1;"><g transform="translate(171.068389, 222.095596)"><path style="stroke:none" d=""/></g></g><g style="fill:#000000;fill-opacity:1;"><g transform="translate(174.014268, 222.095596)"><path style="stroke:none" d="M 3.453125 0.0625 C 2.867188 0.0625 2.304688 -0.03125 1.765625 -0.21875 C 1.234375 -0.40625 0.820312 -0.648438 0.53125 -0.953125 L 0.859375 -1.59375 C 1.140625 -1.3125 1.515625 -1.082031 1.984375 -0.90625 C 2.460938 -0.726562 2.953125 -0.640625 3.453125 -0.640625 C 4.160156 -0.640625 4.6875 -0.769531 5.03125 -1.03125 C 5.382812 -1.289062 5.5625 -1.625 5.5625 -2.03125 C 5.5625 -2.351562 5.46875 -2.609375 5.28125 -2.796875 C 5.09375 -2.984375 4.859375 -3.125 4.578125 -3.21875 C 4.296875 -3.320312 3.910156 -3.4375 3.421875 -3.5625 C 2.828125 -3.707031 2.351562 -3.847656 2 -3.984375 C 1.644531 -4.128906 1.34375 -4.34375 1.09375 -4.625 C 0.84375 -4.90625 0.71875 -5.289062 0.71875 -5.78125 C 0.71875 -6.175781 0.820312 -6.535156 1.03125 -6.859375 C 1.238281 -7.191406 1.5625 -7.453125 2 -7.640625 C 2.4375 -7.835938 2.976562 -7.9375 3.625 -7.9375 C 4.070312 -7.9375 4.507812 -7.875 4.9375 -7.75 C 5.375 -7.632812 5.75 -7.46875 6.0625 -7.25 L 5.78125 -6.578125 C 5.445312 -6.796875 5.09375 -6.957031 4.71875 -7.0625 C 4.34375 -7.175781 3.976562 -7.234375 3.625 -7.234375 C 2.9375 -7.234375 2.414062 -7.097656 2.0625 -6.828125 C 1.71875 -6.566406 1.546875 -6.226562 1.546875 -5.8125 C 1.546875 -5.488281 1.640625 -5.234375 1.828125 -5.046875 C 2.015625 -4.859375 2.253906 -4.710938 2.546875 -4.609375 C 2.835938 -4.503906 3.226562 -4.394531 3.71875 -4.28125 C 4.289062 -4.132812 4.753906 -3.988281 5.109375 -3.84375 C 5.460938 -3.707031 5.765625 -3.5 6.015625 -3.21875 C 6.265625 -2.9375 6.390625 -2.554688 6.390625 -2.078125 C 6.390625 -1.679688 6.28125 -1.316406 6.0625 -0.984375 C 5.851562 -0.660156 5.523438 -0.40625 5.078125 -0.21875 C 4.640625 -0.03125 4.097656 0.0625 3.453125 0.0625 Z M 3.453125 0.0625 "/></g></g><g style="fill:#000000;fill-opacity:1;"><g transform="translate(180.929206, 222.095596)"><path style="stroke:none" d="M 4.234375 -0.359375 C 4.078125 -0.222656 3.890625 -0.117188 3.671875 -0.046875 C 3.453125 0.0234375 3.222656 0.0625 2.984375 0.0625 C 2.429688 0.0625 2.003906 -0.0859375 1.703125 -0.390625 C 1.398438 -0.691406 1.25 -1.117188 1.25 -1.671875 L 1.25 -5.25 L 0.1875 -5.25 L 0.1875 -5.921875 L 1.25 -5.921875 L 1.25 -7.21875 L 2.046875 -7.21875 L 2.046875 -5.921875 L 3.84375 -5.921875 L 3.84375 -5.25 L 2.046875 -5.25 L 2.046875 -1.703125 C 2.046875 -1.359375 2.132812 -1.09375 2.3125 -0.90625 C 2.488281 -0.71875 2.742188 -0.625 3.078125 -0.625 C 3.234375 -0.625 3.390625 -0.648438 3.546875 -0.703125 C 3.703125 -0.753906 3.835938 -0.832031 3.953125 -0.9375 Z M 4.234375 -0.359375 "/></g></g><g style="fill:#000000;fill-opacity:1;"><g transform="translate(185.381732, 222.095596)"><path style="stroke:none" d="M 6.09375 -5.921875 L 3.125 0.703125 C 2.882812 1.265625 2.609375 1.660156 2.296875 1.890625 C 1.984375 2.117188 1.601562 2.234375 1.15625 2.234375 C 0.875 2.234375 0.609375 2.1875 0.359375 2.09375 C 0.109375 2.007812 -0.101562 1.878906 -0.28125 1.703125 L 0.09375 1.109375 C 0.394531 1.398438 0.753906 1.546875 1.171875 1.546875 C 1.441406 1.546875 1.671875 1.472656 1.859375 1.328125 C 2.054688 1.179688 2.234375 0.925781 2.390625 0.5625 L 2.65625 -0.015625 L 0.015625 -5.921875 L 0.84375 -5.921875 L 3.078125 -0.890625 L 5.296875 -5.921875 Z M 6.09375 -5.921875 "/></g></g><g style="fill:#000000;fill-opacity:1;"><g transform="translate(191.475874, 222.095596)"><path style="stroke:none" d="M 1.109375 -8.34375 L 1.90625 -8.34375 L 1.90625 0 L 1.109375 0 Z M 1.109375 -8.34375 "/></g></g><g style="fill:#000000;fill-opacity:1;"><g transform="translate(194.500457, 222.095596)"><path style="stroke:none" d="M 6.265625 -2.71875 L 1.3125 -2.71875 C 1.363281 -2.09375 1.601562 -1.59375 2.03125 -1.21875 C 2.457031 -0.84375 2.992188 -0.65625 3.640625 -0.65625 C 4.015625 -0.65625 4.351562 -0.71875 4.65625 -0.84375 C 4.96875 -0.976562 5.234375 -1.171875 5.453125 -1.421875 L 5.90625 -0.90625 C 5.644531 -0.59375 5.316406 -0.351562 4.921875 -0.1875 C 4.523438 -0.0195312 4.09375 0.0625 3.625 0.0625 C 3.019531 0.0625 2.484375 -0.0664062 2.015625 -0.328125 C 1.546875 -0.585938 1.175781 -0.945312 0.90625 -1.40625 C 0.644531 -1.863281 0.515625 -2.378906 0.515625 -2.953125 C 0.515625 -3.535156 0.640625 -4.054688 0.890625 -4.515625 C 1.140625 -4.972656 1.484375 -5.328125 1.921875 -5.578125 C 2.367188 -5.835938 2.863281 -5.96875 3.40625 -5.96875 C 3.957031 -5.96875 4.445312 -5.835938 4.875 -5.578125 C 5.3125 -5.328125 5.65625 -4.972656 5.90625 -4.515625 C 6.15625 -4.066406 6.28125 -3.546875 6.28125 -2.953125 Z M 3.40625 -5.28125 C 2.832031 -5.28125 2.351562 -5.097656 1.96875 -4.734375 C 1.582031 -4.367188 1.363281 -3.894531 1.3125 -3.3125 L 5.515625 -3.3125 C 5.460938 -3.894531 5.242188 -4.367188 4.859375 -4.734375 C 4.472656 -5.097656 3.988281 -5.28125 3.40625 -5.28125 Z M 3.40625 -5.28125 "/></g></g><g style="fill:#000000;fill-opacity:1;"><g transform="translate(201.291715, 222.095596)"><path style="stroke:none" d="M 1.203125 -1.171875 C 1.378906 -1.171875 1.519531 -1.113281 1.625 -1 C 1.738281 -0.882812 1.796875 -0.738281 1.796875 -0.5625 C 1.796875 -0.46875 1.78125 -0.367188 1.75 -0.265625 C 1.726562 -0.160156 1.691406 -0.0390625 1.640625 0.09375 L 1.171875 1.640625 L 0.625 1.640625 L 1.015625 0.015625 C 0.890625 -0.0234375 0.789062 -0.09375 0.71875 -0.1875 C 0.644531 -0.289062 0.609375 -0.414062 0.609375 -0.5625 C 0.609375 -0.738281 0.660156 -0.882812 0.765625 -1 C 0.878906 -1.113281 1.023438 -1.171875 1.203125 -1.171875 Z M 1.203125 -1.171875 "/></g></g><g style="fill:#000000;fill-opacity:1;"><g transform="translate(203.675397, 222.095596)"><path style="stroke:none" d=""/></g></g><g style="fill:#000000;fill-opacity:1;"><g transform="translate(206.621277, 222.095596)"><path style="stroke:none" d="M 6.84375 -0.71875 L 6.84375 0 L 1.28125 0 L 1.28125 -7.875 L 6.6875 -7.875 L 6.6875 -7.15625 L 2.109375 -7.15625 L 2.109375 -4.359375 L 6.1875 -4.359375 L 6.1875 -3.640625 L 2.109375 -3.640625 L 2.109375 -0.71875 Z M 6.84375 -0.71875 "/></g></g><g style="fill:#000000;fill-opacity:1;"><g transform="translate(214.143388, 222.095596)"><path style="stroke:none" d="M 8.5 -5.96875 C 9.238281 -5.96875 9.816406 -5.753906 10.234375 -5.328125 C 10.660156 -4.898438 10.875 -4.269531 10.875 -3.4375 L 10.875 0 L 10.078125 0 L 10.078125 -3.359375 C 10.078125 -3.972656 9.925781 -4.441406 9.625 -4.765625 C 9.332031 -5.085938 8.914062 -5.25 8.375 -5.25 C 7.757812 -5.25 7.273438 -5.054688 6.921875 -4.671875 C 6.578125 -4.296875 6.40625 -3.773438 6.40625 -3.109375 L 6.40625 0 L 5.609375 0 L 5.609375 -3.359375 C 5.609375 -3.972656 5.457031 -4.441406 5.15625 -4.765625 C 4.863281 -5.085938 4.441406 -5.25 3.890625 -5.25 C 3.285156 -5.25 2.800781 -5.054688 2.4375 -4.671875 C 2.082031 -4.296875 1.90625 -3.773438 1.90625 -3.109375 L 1.90625 0 L 1.109375 0 L 1.109375 -5.921875 L 1.875 -5.921875 L 1.875 -4.84375 C 2.082031 -5.195312 2.375 -5.472656 2.75 -5.671875 C 3.125 -5.867188 3.554688 -5.96875 4.046875 -5.96875 C 4.546875 -5.96875 4.976562 -5.859375 5.34375 -5.640625 C 5.707031 -5.429688 5.976562 -5.125 6.15625 -4.71875 C 6.375 -5.101562 6.6875 -5.40625 7.09375 -5.625 C 7.5 -5.851562 7.96875 -5.96875 8.5 -5.96875 Z M 8.5 -5.96875 "/></g></g><g style="fill:#000000;fill-opacity:1;"><g transform="translate(226.073063, 222.095596)"><path style="stroke:none" d="M 4.15625 -5.96875 C 4.71875 -5.96875 5.222656 -5.835938 5.671875 -5.578125 C 6.117188 -5.328125 6.46875 -4.972656 6.71875 -4.515625 C 6.976562 -4.066406 7.109375 -3.546875 7.109375 -2.953125 C 7.109375 -2.359375 6.976562 -1.832031 6.71875 -1.375 C 6.46875 -0.925781 6.117188 -0.570312 5.671875 -0.3125 C 5.222656 -0.0625 4.71875 0.0625 4.15625 0.0625 C 3.675781 0.0625 3.242188 -0.0351562 2.859375 -0.234375 C 2.472656 -0.441406 2.15625 -0.734375 1.90625 -1.109375 L 1.90625 2.1875 L 1.109375 2.1875 L 1.109375 -5.921875 L 1.875 -5.921875 L 1.875 -4.75 C 2.113281 -5.132812 2.429688 -5.429688 2.828125 -5.640625 C 3.222656 -5.859375 3.664062 -5.96875 4.15625 -5.96875 Z M 4.109375 -0.65625 C 4.515625 -0.65625 4.882812 -0.75 5.21875 -0.9375 C 5.5625 -1.125 5.828125 -1.394531 6.015625 -1.75 C 6.210938 -2.101562 6.3125 -2.503906 6.3125 -2.953125 C 6.3125 -3.410156 6.210938 -3.8125 6.015625 -4.15625 C 5.828125 -4.507812 5.5625 -4.78125 5.21875 -4.96875 C 4.882812 -5.164062 4.515625 -5.265625 4.109375 -5.265625 C 3.679688 -5.265625 3.300781 -5.164062 2.96875 -4.96875 C 2.632812 -4.78125 2.375 -4.507812 2.1875 -4.15625 C 2 -3.8125 1.90625 -3.410156 1.90625 -2.953125 C 1.90625 -2.503906 2 -2.101562 2.1875 -1.75 C 2.375 -1.394531 2.632812 -1.125 2.96875 -0.9375 C 3.300781 -0.75 3.679688 -0.65625 4.109375 -0.65625 Z M 4.109375 -0.65625 "/></g></g><g style="fill:#000000;fill-opacity:1;"><g transform="translate(233.696366, 222.095596)"><path style="stroke:none" d="M 3.53125 0.0625 C 2.957031 0.0625 2.441406 -0.0664062 1.984375 -0.328125 C 1.535156 -0.585938 1.175781 -0.945312 0.90625 -1.40625 C 0.644531 -1.863281 0.515625 -2.378906 0.515625 -2.953125 C 0.515625 -3.535156 0.644531 -4.054688 0.90625 -4.515625 C 1.175781 -4.972656 1.535156 -5.328125 1.984375 -5.578125 C 2.441406 -5.835938 2.957031 -5.96875 3.53125 -5.96875 C 4.101562 -5.96875 4.617188 -5.835938 5.078125 -5.578125 C 5.535156 -5.328125 5.890625 -4.972656 6.140625 -4.515625 C 6.398438 -4.054688 6.53125 -3.535156 6.53125 -2.953125 C 6.53125 -2.378906 6.398438 -1.863281 6.140625 -1.40625 C 5.890625 -0.945312 5.535156 -0.585938 5.078125 -0.328125 C 4.617188 -0.0664062 4.101562 0.0625 3.53125 0.0625 Z M 3.53125 -0.65625 C 3.945312 -0.65625 4.320312 -0.75 4.65625 -0.9375 C 4.988281 -1.125 5.25 -1.394531 5.4375 -1.75 C 5.625 -2.101562 5.71875 -2.503906 5.71875 -2.953125 C 5.71875 -3.410156 5.625 -3.8125 5.4375 -4.15625 C 5.25 -4.507812 4.988281 -4.78125 4.65625 -4.96875 C 4.320312 -5.164062 3.945312 -5.265625 3.53125 -5.265625 C 3.113281 -5.265625 2.738281 -5.164062 2.40625 -4.96875 C 2.070312 -4.78125 1.804688 -4.507812 1.609375 -4.15625 C 1.421875 -3.8125 1.328125 -3.410156 1.328125 -2.953125 C 1.328125 -2.503906 1.421875 -2.101562 1.609375 -1.75 C 1.804688 -1.394531 2.070312 -1.125 2.40625 -0.9375 C 2.738281 -0.75 3.113281 -0.65625 3.53125 -0.65625 Z M 3.53125 -0.65625 "/></g></g><g style="fill:#000000;fill-opacity:1;"><g transform="translate(240.577551, 222.095596)"><path style="stroke:none" d="M 9.796875 -5.921875 L 7.5625 0 L 6.8125 0 L 4.9375 -4.84375 L 3.078125 0 L 2.3125 0 L 0.09375 -5.921875 L 0.859375 -5.921875 L 2.71875 -0.890625 L 4.609375 -5.921875 L 5.296875 -5.921875 L 7.1875 -0.890625 L 9.0625 -5.921875 Z M 9.796875 -5.921875 "/></g></g><g style="fill:#000000;fill-opacity:1;"><g transform="translate(250.292174, 222.095596)"><path style="stroke:none" d="M 6.265625 -2.71875 L 1.3125 -2.71875 C 1.363281 -2.09375 1.601562 -1.59375 2.03125 -1.21875 C 2.457031 -0.84375 2.992188 -0.65625 3.640625 -0.65625 C 4.015625 -0.65625 4.351562 -0.71875 4.65625 -0.84375 C 4.96875 -0.976562 5.234375 -1.171875 5.453125 -1.421875 L 5.90625 -0.90625 C 5.644531 -0.59375 5.316406 -0.351562 4.921875 -0.1875 C 4.523438 -0.0195312 4.09375 0.0625 3.625 0.0625 C 3.019531 0.0625 2.484375 -0.0664062 2.015625 -0.328125 C 1.546875 -0.585938 1.175781 -0.945312 0.90625 -1.40625 C 0.644531 -1.863281 0.515625 -2.378906 0.515625 -2.953125 C 0.515625 -3.535156 0.640625 -4.054688 0.890625 -4.515625 C 1.140625 -4.972656 1.484375 -5.328125 1.921875 -5.578125 C 2.367188 -5.835938 2.863281 -5.96875 3.40625 -5.96875 C 3.957031 -5.96875 4.445312 -5.835938 4.875 -5.578125 C 5.3125 -5.328125 5.65625 -4.972656 5.90625 -4.515625 C 6.15625 -4.066406 6.28125 -3.546875 6.28125 -2.953125 Z M 3.40625 -5.28125 C 2.832031 -5.28125 2.351562 -5.097656 1.96875 -4.734375 C 1.582031 -4.367188 1.363281 -3.894531 1.3125 -3.3125 L 5.515625 -3.3125 C 5.460938 -3.894531 5.242188 -4.367188 4.859375 -4.734375 C 4.472656 -5.097656 3.988281 -5.28125 3.40625 -5.28125 Z M 3.40625 -5.28125 "/></g></g><g style="fill:#000000;fill-opacity:1;"><g transform="translate(257.083432, 222.095596)"><path style="stroke:none" d="M 1.875 -4.765625 C 2.0625 -5.160156 2.34375 -5.457031 2.71875 -5.65625 C 3.09375 -5.863281 3.550781 -5.96875 4.09375 -5.96875 L 4.09375 -5.1875 L 3.90625 -5.203125 C 3.28125 -5.203125 2.789062 -5.007812 2.4375 -4.625 C 2.082031 -4.238281 1.90625 -3.703125 1.90625 -3.015625 L 1.90625 0 L 1.109375 0 L 1.109375 -5.921875 L 1.875 -5.921875 Z M 1.875 -4.765625 "/></g></g><g style="fill:#000000;fill-opacity:1;"><g transform="translate(261.592198, 222.095596)"><path style="stroke:none" d=""/></g></g><g style="fill:#000000;fill-opacity:1;"><g transform="translate(264.538078, 222.095596)"><path style="stroke:none" d="M 3.984375 -2.71875 L 3.984375 0 L 3.15625 0 L 3.15625 -2.71875 L 0.015625 -7.875 L 0.90625 -7.875 L 3.59375 -3.453125 L 6.296875 -7.875 L 7.125 -7.875 Z M 3.984375 -2.71875 "/></g></g><g style="fill:#000000;fill-opacity:1;"><g transform="translate(271.00317, 222.095596)"><path style="stroke:none" d="M 3.53125 0.0625 C 2.957031 0.0625 2.441406 -0.0664062 1.984375 -0.328125 C 1.535156 -0.585938 1.175781 -0.945312 0.90625 -1.40625 C 0.644531 -1.863281 0.515625 -2.378906 0.515625 -2.953125 C 0.515625 -3.535156 0.644531 -4.054688 0.90625 -4.515625 C 1.175781 -4.972656 1.535156 -5.328125 1.984375 -5.578125 C 2.441406 -5.835938 2.957031 -5.96875 3.53125 -5.96875 C 4.101562 -5.96875 4.617188 -5.835938 5.078125 -5.578125 C 5.535156 -5.328125 5.890625 -4.972656 6.140625 -4.515625 C 6.398438 -4.054688 6.53125 -3.535156 6.53125 -2.953125 C 6.53125 -2.378906 6.398438 -1.863281 6.140625 -1.40625 C 5.890625 -0.945312 5.535156 -0.585938 5.078125 -0.328125 C 4.617188 -0.0664062 4.101562 0.0625 3.53125 0.0625 Z M 3.53125 -0.65625 C 3.945312 -0.65625 4.320312 -0.75 4.65625 -0.9375 C 4.988281 -1.125 5.25 -1.394531 5.4375 -1.75 C 5.625 -2.101562 5.71875 -2.503906 5.71875 -2.953125 C 5.71875 -3.410156 5.625 -3.8125 5.4375 -4.15625 C 5.25 -4.507812 4.988281 -4.78125 4.65625 -4.96875 C 4.320312 -5.164062 3.945312 -5.265625 3.53125 -5.265625 C 3.113281 -5.265625 2.738281 -5.164062 2.40625 -4.96875 C 2.070312 -4.78125 1.804688 -4.507812 1.609375 -4.15625 C 1.421875 -3.8125 1.328125 -3.410156 1.328125 -2.953125 C 1.328125 -2.503906 1.421875 -2.101562 1.609375 -1.75 C 1.804688 -1.394531 2.070312 -1.125 2.40625 -0.9375 C 2.738281 -0.75 3.113281 -0.65625 3.53125 -0.65625 Z M 3.53125 -0.65625 "/></g></g><g style="fill:#000000;fill-opacity:1;"><g transform="translate(278.053038, 222.095596)"><path style="stroke:none" d="M 6.453125 -5.921875 L 6.453125 0 L 5.6875 0 L 5.6875 -1.078125 C 5.46875 -0.722656 5.175781 -0.441406 4.8125 -0.234375 C 4.445312 -0.0351562 4.03125 0.0625 3.5625 0.0625 C 2.78125 0.0625 2.164062 -0.148438 1.71875 -0.578125 C 1.28125 -1.015625 1.0625 -1.648438 1.0625 -2.484375 L 1.0625 -5.921875 L 1.859375 -5.921875 L 1.859375 -2.5625 C 1.859375 -1.9375 2.007812 -1.460938 2.3125 -1.140625 C 2.625 -0.816406 3.066406 -0.65625 3.640625 -0.65625 C 4.253906 -0.65625 4.738281 -0.84375 5.09375 -1.21875 C 5.457031 -1.601562 5.640625 -2.132812 5.640625 -2.8125 L 5.640625 -5.921875 Z M 6.453125 -5.921875 "/></g></g><g style="fill:#000000;fill-opacity:1;"><g transform="translate(285.620113, 222.095596)"><path style="stroke:none" d="M 1.875 -4.765625 C 2.0625 -5.160156 2.34375 -5.457031 2.71875 -5.65625 C 3.09375 -5.863281 3.550781 -5.96875 4.09375 -5.96875 L 4.09375 -5.1875 L 3.90625 -5.203125 C 3.28125 -5.203125 2.789062 -5.007812 2.4375 -4.625 C 2.082031 -4.238281 1.90625 -3.703125 1.90625 -3.015625 L 1.90625 0 L 1.109375 0 L 1.109375 -5.921875 L 1.875 -5.921875 Z M 1.875 -4.765625 "/></g></g><g style="fill:#000000;fill-opacity:1;"><g transform="translate(290.12888, 222.095596)"><path style="stroke:none" d=""/></g></g><g style="fill:#000000;fill-opacity:1;"><g transform="translate(293.07476, 222.095596)"><path style="stroke:none" d="M 4.234375 -7.875 C 5.234375 -7.875 6.019531 -7.632812 6.59375 -7.15625 C 7.164062 -6.675781 7.453125 -6.015625 7.453125 -5.171875 C 7.453125 -4.335938 7.164062 -3.679688 6.59375 -3.203125 C 6.019531 -2.722656 5.234375 -2.484375 4.234375 -2.484375 L 2.109375 -2.484375 L 2.109375 0 L 1.28125 0 L 1.28125 -7.875 Z M 4.203125 -3.21875 C 4.984375 -3.21875 5.578125 -3.382812 5.984375 -3.71875 C 6.398438 -4.0625 6.609375 -4.546875 6.609375 -5.171875 C 6.609375 -5.804688 6.398438 -6.296875 5.984375 -6.640625 C 5.578125 -6.984375 4.984375 -7.15625 4.203125 -7.15625 L 2.109375 -7.15625 L 2.109375 -3.21875 Z M 4.203125 -3.21875 "/></g></g><g style="fill:#000000;fill-opacity:1;"><g transform="translate(300.88917, 222.095596)"><path style="stroke:none" d="M 1.875 -4.765625 C 2.0625 -5.160156 2.34375 -5.457031 2.71875 -5.65625 C 3.09375 -5.863281 3.550781 -5.96875 4.09375 -5.96875 L 4.09375 -5.1875 L 3.90625 -5.203125 C 3.28125 -5.203125 2.789062 -5.007812 2.4375 -4.625 C 2.082031 -4.238281 1.90625 -3.703125 1.90625 -3.015625 L 1.90625 0 L 1.109375 0 L 1.109375 -5.921875 L 1.875 -5.921875 Z M 1.875 -4.765625 "/></g></g><g style="fill:#000000;fill-opacity:1;"><g transform="translate(305.251742, 222.095596)"><path style="stroke:none" d="M 6.265625 -2.71875 L 1.3125 -2.71875 C 1.363281 -2.09375 1.601562 -1.59375 2.03125 -1.21875 C 2.457031 -0.84375 2.992188 -0.65625 3.640625 -0.65625 C 4.015625 -0.65625 4.351562 -0.71875 4.65625 -0.84375 C 4.96875 -0.976562 5.234375 -1.171875 5.453125 -1.421875 L 5.90625 -0.90625 C 5.644531 -0.59375 5.316406 -0.351562 4.921875 -0.1875 C 4.523438 -0.0195312 4.09375 0.0625 3.625 0.0625 C 3.019531 0.0625 2.484375 -0.0664062 2.015625 -0.328125 C 1.546875 -0.585938 1.175781 -0.945312 0.90625 -1.40625 C 0.644531 -1.863281 0.515625 -2.378906 0.515625 -2.953125 C 0.515625 -3.535156 0.640625 -4.054688 0.890625 -4.515625 C 1.140625 -4.972656 1.484375 -5.328125 1.921875 -5.578125 C 2.367188 -5.835938 2.863281 -5.96875 3.40625 -5.96875 C 3.957031 -5.96875 4.445312 -5.835938 4.875 -5.578125 C 5.3125 -5.328125 5.65625 -4.972656 5.90625 -4.515625 C 6.15625 -4.066406 6.28125 -3.546875 6.28125 -2.953125 Z M 3.40625 -5.28125 C 2.832031 -5.28125 2.351562 -5.097656 1.96875 -4.734375 C 1.582031 -4.367188 1.363281 -3.894531 1.3125 -3.3125 L 5.515625 -3.3125 C 5.460938 -3.894531 5.242188 -4.367188 4.859375 -4.734375 C 4.472656 -5.097656 3.988281 -5.28125 3.40625 -5.28125 Z M 3.40625 -5.28125 "/></g></g><g style="fill:#000000;fill-opacity:1;"><g transform="translate(312.043, 222.095596)"><path style="stroke:none" d="M 2.703125 0.0625 C 2.222656 0.0625 1.757812 -0.00390625 1.3125 -0.140625 C 0.875 -0.285156 0.535156 -0.460938 0.296875 -0.671875 L 0.65625 -1.3125 C 0.90625 -1.113281 1.21875 -0.953125 1.59375 -0.828125 C 1.96875 -0.703125 2.351562 -0.640625 2.75 -0.640625 C 3.289062 -0.640625 3.691406 -0.722656 3.953125 -0.890625 C 4.210938 -1.054688 4.34375 -1.296875 4.34375 -1.609375 C 4.34375 -1.828125 4.269531 -2 4.125 -2.125 C 3.988281 -2.25 3.8125 -2.34375 3.59375 -2.40625 C 3.375 -2.46875 3.082031 -2.53125 2.71875 -2.59375 C 2.238281 -2.675781 1.851562 -2.765625 1.5625 -2.859375 C 1.269531 -2.953125 1.019531 -3.109375 0.8125 -3.328125 C 0.601562 -3.554688 0.5 -3.875 0.5 -4.28125 C 0.5 -4.769531 0.707031 -5.171875 1.125 -5.484375 C 1.539062 -5.804688 2.113281 -5.96875 2.84375 -5.96875 C 3.226562 -5.96875 3.609375 -5.914062 3.984375 -5.8125 C 4.367188 -5.707031 4.6875 -5.570312 4.9375 -5.40625 L 4.59375 -4.765625 C 4.101562 -5.109375 3.519531 -5.28125 2.84375 -5.28125 C 2.332031 -5.28125 1.945312 -5.1875 1.6875 -5 C 1.4375 -4.820312 1.3125 -4.585938 1.3125 -4.296875 C 1.3125 -4.066406 1.382812 -3.882812 1.53125 -3.75 C 1.675781 -3.625 1.851562 -3.523438 2.0625 -3.453125 C 2.28125 -3.390625 2.582031 -3.328125 2.96875 -3.265625 C 3.4375 -3.171875 3.8125 -3.078125 4.09375 -2.984375 C 4.382812 -2.898438 4.628906 -2.75 4.828125 -2.53125 C 5.035156 -2.3125 5.140625 -2.007812 5.140625 -1.625 C 5.140625 -1.113281 4.921875 -0.703125 4.484375 -0.390625 C 4.054688 -0.0859375 3.460938 0.0625 2.703125 0.0625 Z M 2.703125 0.0625 "/></g></g><g style="fill:#000000;fill-opacity:1;"><g transform="translate(317.541231, 222.095596)"><path style="stroke:none" d="M 6.265625 -2.71875 L 1.3125 -2.71875 C 1.363281 -2.09375 1.601562 -1.59375 2.03125 -1.21875 C 2.457031 -0.84375 2.992188 -0.65625 3.640625 -0.65625 C 4.015625 -0.65625 4.351562 -0.71875 4.65625 -0.84375 C 4.96875 -0.976562 5.234375 -1.171875 5.453125 -1.421875 L 5.90625 -0.90625 C 5.644531 -0.59375 5.316406 -0.351562 4.921875 -0.1875 C 4.523438 -0.0195312 4.09375 0.0625 3.625 0.0625 C 3.019531 0.0625 2.484375 -0.0664062 2.015625 -0.328125 C 1.546875 -0.585938 1.175781 -0.945312 0.90625 -1.40625 C 0.644531 -1.863281 0.515625 -2.378906 0.515625 -2.953125 C 0.515625 -3.535156 0.640625 -4.054688 0.890625 -4.515625 C 1.140625 -4.972656 1.484375 -5.328125 1.921875 -5.578125 C 2.367188 -5.835938 2.863281 -5.96875 3.40625 -5.96875 C 3.957031 -5.96875 4.445312 -5.835938 4.875 -5.578125 C 5.3125 -5.328125 5.65625 -4.972656 5.90625 -4.515625 C 6.15625 -4.066406 6.28125 -3.546875 6.28125 -2.953125 Z M 3.40625 -5.28125 C 2.832031 -5.28125 2.351562 -5.097656 1.96875 -4.734375 C 1.582031 -4.367188 1.363281 -3.894531 1.3125 -3.3125 L 5.515625 -3.3125 C 5.460938 -3.894531 5.242188 -4.367188 4.859375 -4.734375 C 4.472656 -5.097656 3.988281 -5.28125 3.40625 -5.28125 Z M 3.40625 -5.28125 "/></g></g><g style="fill:#000000;fill-opacity:1;"><g transform="translate(324.332476, 222.095596)"><path style="stroke:none" d="M 4.125 -5.96875 C 4.875 -5.96875 5.46875 -5.75 5.90625 -5.3125 C 6.34375 -4.882812 6.5625 -4.257812 6.5625 -3.4375 L 6.5625 0 L 5.765625 0 L 5.765625 -3.359375 C 5.765625 -3.972656 5.609375 -4.441406 5.296875 -4.765625 C 4.992188 -5.085938 4.554688 -5.25 3.984375 -5.25 C 3.347656 -5.25 2.84375 -5.054688 2.46875 -4.671875 C 2.09375 -4.296875 1.90625 -3.773438 1.90625 -3.109375 L 1.90625 0 L 1.109375 0 L 1.109375 -5.921875 L 1.875 -5.921875 L 1.875 -4.828125 C 2.09375 -5.179688 2.394531 -5.457031 2.78125 -5.65625 C 3.164062 -5.863281 3.613281 -5.96875 4.125 -5.96875 Z M 4.125 -5.96875 "/></g></g><g style="fill:#000000;fill-opacity:1;"><g transform="translate(331.96703, 222.095596)"><path style="stroke:none" d="M 3.5625 0.0625 C 2.976562 0.0625 2.457031 -0.0625 2 -0.3125 C 1.539062 -0.570312 1.175781 -0.929688 0.90625 -1.390625 C 0.644531 -1.859375 0.515625 -2.378906 0.515625 -2.953125 C 0.515625 -3.535156 0.644531 -4.054688 0.90625 -4.515625 C 1.175781 -4.972656 1.539062 -5.328125 2 -5.578125 C 2.457031 -5.835938 2.976562 -5.96875 3.5625 -5.96875 C 4.070312 -5.96875 4.523438 -5.863281 4.921875 -5.65625 C 5.328125 -5.457031 5.648438 -5.171875 5.890625 -4.796875 L 5.28125 -4.390625 C 5.09375 -4.679688 4.847656 -4.898438 4.546875 -5.046875 C 4.242188 -5.191406 3.914062 -5.265625 3.5625 -5.265625 C 3.132812 -5.265625 2.75 -5.164062 2.40625 -4.96875 C 2.070312 -4.78125 1.804688 -4.507812 1.609375 -4.15625 C 1.421875 -3.8125 1.328125 -3.410156 1.328125 -2.953125 C 1.328125 -2.492188 1.421875 -2.085938 1.609375 -1.734375 C 1.804688 -1.390625 2.070312 -1.125 2.40625 -0.9375 C 2.75 -0.75 3.132812 -0.65625 3.5625 -0.65625 C 3.914062 -0.65625 4.242188 -0.722656 4.546875 -0.859375 C 4.847656 -1.003906 5.09375 -1.222656 5.28125 -1.515625 L 5.890625 -1.109375 C 5.648438 -0.734375 5.328125 -0.441406 4.921875 -0.234375 C 4.515625 -0.0351562 4.0625 0.0625 3.5625 0.0625 Z M 3.5625 0.0625 "/></g></g><g style="fill:#000000;fill-opacity:1;"><g transform="translate(338.196077, 222.095596)"><path style="stroke:none" d="M 6.265625 -2.71875 L 1.3125 -2.71875 C 1.363281 -2.09375 1.601562 -1.59375 2.03125 -1.21875 C 2.457031 -0.84375 2.992188 -0.65625 3.640625 -0.65625 C 4.015625 -0.65625 4.351562 -0.71875 4.65625 -0.84375 C 4.96875 -0.976562 5.234375 -1.171875 5.453125 -1.421875 L 5.90625 -0.90625 C 5.644531 -0.59375 5.316406 -0.351562 4.921875 -0.1875 C 4.523438 -0.0195312 4.09375 0.0625 3.625 0.0625 C 3.019531 0.0625 2.484375 -0.0664062 2.015625 -0.328125 C 1.546875 -0.585938 1.175781 -0.945312 0.90625 -1.40625 C 0.644531 -1.863281 0.515625 -2.378906 0.515625 -2.953125 C 0.515625 -3.535156 0.640625 -4.054688 0.890625 -4.515625 C 1.140625 -4.972656 1.484375 -5.328125 1.921875 -5.578125 C 2.367188 -5.835938 2.863281 -5.96875 3.40625 -5.96875 C 3.957031 -5.96875 4.445312 -5.835938 4.875 -5.578125 C 5.3125 -5.328125 5.65625 -4.972656 5.90625 -4.515625 C 6.15625 -4.066406 6.28125 -3.546875 6.28125 -2.953125 Z M 3.40625 -5.28125 C 2.832031 -5.28125 2.351562 -5.097656 1.96875 -4.734375 C 1.582031 -4.367188 1.363281 -3.894531 1.3125 -3.3125 L 5.515625 -3.3125 C 5.460938 -3.894531 5.242188 -4.367188 4.859375 -4.734375 C 4.472656 -5.097656 3.988281 -5.28125 3.40625 -5.28125 Z M 3.40625 -5.28125 "/></g></g><g style="fill:#000000;fill-opacity:1;"><g transform="translate(344.987347, 222.095596)"><path style="stroke:none" d="M 1.1875 0.0625 C 1.019531 0.0625 0.878906 0.00390625 0.765625 -0.109375 C 0.648438 -0.234375 0.59375 -0.382812 0.59375 -0.5625 C 0.59375 -0.738281 0.648438 -0.882812 0.765625 -1 C 0.878906 -1.113281 1.019531 -1.171875 1.1875 -1.171875 C 1.351562 -1.171875 1.492188 -1.113281 1.609375 -1 C 1.734375 -0.882812 1.796875 -0.738281 1.796875 -0.5625 C 1.796875 -0.382812 1.734375 -0.234375 1.609375 -0.109375 C 1.492188 0.00390625 1.351562 0.0625 1.1875 0.0625 Z M 1.1875 0.0625 "/></g></g><g style="fill:#000000;fill-opacity:1;"><g transform="translate(95.302049, 205.043356)"><path style="stroke:none" d="M 35.796875 0 L 6.171875 0 L 6.171875 -46.5 L 35.015625 -46.5 L 35.015625 -42.296875 L 10.90625 -42.296875 L 10.90625 -26.28125 L 33.4375 -26.28125 L 33.4375 -22.140625 L 10.90625 -22.140625 L 10.90625 -4.203125 L 35.796875 -4.203125 Z M 35.796875 0 "/></g></g><g style="fill:#000000;fill-opacity:1;"><g transform="translate(134.186749, 205.043356)"><path style="stroke:none" d="M 20.75 -46.5 L 25.359375 -46.5 L 45.328125 0 L 40.0625 0 L 34.953125 -12.21875 L 10.90625 -12.21875 L 5.84375 0 L 0.65625 0 Z M 22.921875 -41.3125 L 12.671875 -16.546875 L 33.171875 -16.546875 Z M 22.921875 -41.3125 "/></g></g><g style="fill:#000000;fill-opacity:1;"><g transform="translate(180.165277, 205.043356)"><path style="stroke:none" d="M 35.53125 0 L 2.03125 0 L 2.03125 -3.9375 L 29.234375 -42.296875 L 2.765625 -42.296875 L 2.765625 -46.5 L 35.140625 -46.5 L 35.140625 -42.5625 L 8.015625 -4.203125 L 35.53125 -4.203125 Z M 35.53125 0 "/></g></g><g style="fill:#000000;fill-opacity:1;"><g transform="translate(217.736304, 205.043356)"><path style="stroke:none" d="M 20.75 -46.5 L 25.359375 -46.5 L 45.328125 0 L 40.0625 0 L 34.953125 -12.21875 L 10.90625 -12.21875 L 5.84375 0 L 0.65625 0 Z M 22.921875 -41.3125 L 12.671875 -16.546875 L 33.171875 -16.546875 Z M 22.921875 -41.3125 "/></g></g><g style="fill:#000000;fill-opacity:1;"><g transform="translate(263.714833, 205.043356)"><path style="stroke:none" d="M 20.75 -46.5 L 25.359375 -46.5 L 45.328125 0 L 40.0625 0 L 34.953125 -12.21875 L 10.90625 -12.21875 L 5.84375 0 L 0.65625 0 Z M 22.921875 -41.3125 L 12.671875 -16.546875 L 33.171875 -16.546875 Z M 22.921875 -41.3125 "/></g></g><g style="fill:#000000;fill-opacity:1;"><g transform="translate(309.693361, 205.043356)"><path style="stroke:none" d="M 6.171875 0 L 6.171875 -46.5 L 19.84375 -46.5 C 24.738281 -46.5 28.609375 -45.503906 31.453125 -43.515625 C 34.304688 -41.523438 35.734375 -38.382812 35.734375 -34.09375 C 35.734375 -31.851562 35.21875 -29.867188 34.1875 -28.140625 C 33.15625 -26.410156 31.742188 -25.039062 29.953125 -24.03125 C 28.160156 -23.03125 26.125 -22.398438 23.84375 -22.140625 L 37.4375 0 L 31.65625 0 L 18.78125 -21.75 L 10.90625 -21.75 L 10.90625 0 Z M 19.109375 -25.8125 C 22.921875 -25.8125 25.851562 -26.507812 27.90625 -27.90625 C 29.96875 -29.3125 31 -31.375 31 -34.09375 C 31 -39.65625 27.101562 -42.4375 19.3125 -42.4375 L 10.90625 -42.4375 L 10.90625 -25.8125 Z M 19.109375 -25.8125 "/></g></g></g></svg>