<svg xmlns="http://www.w3.org/2000/svg" xmlns:xlink="http://www.w3.org/1999/xlink" width="500" zoomAndPan="magnify" viewBox="0 0 375 374.999991" height="500" preserveAspectRatio="xMidYMid meet" version="1.2"><defs><clipPath id="afb2050cdc"><path d="M 95 124.222656 L 129 124.222656 L 129 160 L 95 160 Z M 95 124.222656 "/></clipPath><clipPath id="52f691dd50"><path d="M 40 141 L 143.636719 141 L 143.636719 250.972656 L 40 250.972656 Z M 40 141 "/></clipPath><clipPath id="282f53a43a"><path d="M 23.636719 145 L 72 145 L 72 233 L 23.636719 233 Z M 23.636719 145 "/></clipPath></defs><g id="e6b5fa1a30"><path style=" stroke:none;fill-rule:nonzero;fill:#ffffff;fill-opacity:1;" d="M 101.15625 151.59375 C 101.15625 151.882812 101.128906 152.171875 101.074219 152.457031 C 101.015625 152.742188 100.933594 153.019531 100.820312 153.289062 C 100.710938 153.558594 100.574219 153.8125 100.414062 154.054688 C 100.25 154.296875 100.066406 154.519531 99.863281 154.726562 C 99.65625 154.933594 99.433594 155.117188 99.191406 155.277344 C 98.949219 155.4375 98.695312 155.574219 98.429688 155.6875 C 98.160156 155.796875 97.882812 155.882812 97.597656 155.9375 C 97.3125 155.996094 97.027344 156.023438 96.734375 156.023438 C 96.445312 156.023438 96.15625 155.996094 95.871094 155.9375 C 95.585938 155.882812 95.3125 155.796875 95.042969 155.6875 C 94.773438 155.574219 94.519531 155.4375 94.277344 155.277344 C 94.035156 155.117188 93.8125 154.933594 93.609375 154.726562 C 93.402344 154.519531 93.21875 154.296875 93.058594 154.054688 C 92.898438 153.8125 92.761719 153.558594 92.648438 153.289062 C 92.539062 153.019531 92.453125 152.742188 92.398438 152.457031 C 92.339844 152.171875 92.3125 151.882812 92.3125 151.59375 C 92.3125 151.300781 92.339844 151.011719 92.398438 150.726562 C 92.453125 150.441406 92.539062 150.164062 92.648438 149.898438 C 92.761719 149.628906 92.898438 149.371094 93.058594 149.128906 C 93.21875 148.886719 93.402344 148.664062 93.609375 148.460938 C 93.8125 148.253906 94.035156 148.070312 94.277344 147.90625 C 94.519531 147.746094 94.773438 147.609375 95.042969 147.5 C 95.3125 147.386719 95.585938 147.304688 95.871094 147.246094 C 96.15625 147.1875 96.445312 147.160156 96.734375 147.160156 C 97.027344 147.160156 97.3125 147.1875 97.597656 147.246094 C 97.882812 147.304688 98.160156 147.386719 98.429688 147.5 C 98.695312 147.609375 98.949219 147.746094 99.191406 147.90625 C 99.433594 148.070312 99.65625 148.253906 99.863281 148.460938 C 100.066406 148.664062 100.25 148.886719 100.414062 149.128906 C 100.574219 149.371094 100.710938 149.628906 100.820312 149.898438 C 100.933594 150.164062 101.015625 150.441406 101.074219 150.726562 C 101.128906 151.011719 101.15625 151.300781 101.15625 151.59375 Z M 101.15625 151.59375 "/><path style=" stroke:none;fill-rule:nonzero;fill:#ffffff;fill-opacity:1;" d="M 127.238281 159.234375 C 127.238281 159.527344 127.210938 159.8125 127.152344 160.097656 C 127.097656 160.386719 127.011719 160.660156 126.902344 160.929688 C 126.789062 161.199219 126.65625 161.457031 126.492188 161.695312 C 126.332031 161.9375 126.148438 162.164062 125.941406 162.367188 C 125.738281 162.574219 125.515625 162.757812 125.273438 162.917969 C 125.03125 163.082031 124.777344 163.21875 124.507812 163.328125 C 124.238281 163.441406 123.964844 163.523438 123.679688 163.582031 C 123.394531 163.636719 123.105469 163.667969 122.816406 163.667969 C 122.527344 163.667969 122.238281 163.636719 121.953125 163.582031 C 121.667969 163.523438 121.390625 163.441406 121.125 163.328125 C 120.855469 163.21875 120.601562 163.082031 120.359375 162.917969 C 120.117188 162.757812 119.894531 162.574219 119.6875 162.367188 C 119.484375 162.164062 119.300781 161.9375 119.140625 161.695312 C 118.976562 161.457031 118.839844 161.199219 118.730469 160.929688 C 118.617188 160.660156 118.535156 160.386719 118.480469 160.097656 C 118.421875 159.8125 118.394531 159.527344 118.394531 159.234375 C 118.394531 158.945312 118.421875 158.65625 118.480469 158.371094 C 118.535156 158.085938 118.617188 157.808594 118.730469 157.539062 C 118.839844 157.269531 118.976562 157.015625 119.140625 156.773438 C 119.300781 156.53125 119.484375 156.308594 119.6875 156.101562 C 119.894531 155.894531 120.117188 155.710938 120.359375 155.550781 C 120.601562 155.390625 120.855469 155.253906 121.125 155.140625 C 121.390625 155.03125 121.667969 154.945312 121.953125 154.886719 C 122.238281 154.832031 122.527344 154.804688 122.816406 154.804688 C 123.105469 154.804688 123.394531 154.832031 123.679688 154.886719 C 123.964844 154.945312 124.238281 155.03125 124.507812 155.140625 C 124.777344 155.253906 125.03125 155.390625 125.273438 155.550781 C 125.515625 155.710938 125.738281 155.894531 125.941406 156.101562 C 126.148438 156.308594 126.332031 156.53125 126.492188 156.773438 C 126.65625 157.015625 126.789062 157.269531 126.902344 157.539062 C 127.011719 157.808594 127.097656 158.085938 127.152344 158.371094 C 127.210938 158.65625 127.238281 158.945312 127.238281 159.234375 Z M 127.238281 159.234375 "/><g clip-rule="nonzero" clip-path="url(#afb2050cdc)"><path style=" stroke:none;fill-rule:nonzero;fill:#ffffff;fill-opacity:1;" d="M 123.683594 159.507812 L 121.867188 158.976562 L 126.304688 143.6875 C 127.304688 140.234375 126.984375 136.617188 125.390625 133.515625 C 123.8125 130.425781 121.167969 128.207031 117.945312 127.265625 C 114.71875 126.328125 111.300781 126.777344 108.3125 128.535156 C 105.304688 130.308594 103.09375 133.179688 102.097656 136.632812 L 97.660156 151.921875 L 95.84375 151.390625 L 100.28125 136.101562 C 101.417969 132.183594 103.929688 128.914062 107.355469 126.902344 C 110.796875 124.878906 114.746094 124.359375 118.472656 125.445312 C 122.203125 126.535156 125.257812 129.09375 127.078125 132.648438 C 128.890625 136.191406 129.261719 140.300781 128.125 144.21875 Z M 123.683594 159.507812 "/></g><g clip-rule="nonzero" clip-path="url(#52f691dd50)"><path style=" stroke:none;fill-rule:nonzero;fill:#ffffff;fill-opacity:1;" d="M 141.589844 182.6875 C 141.847656 177.679688 142.476562 167.5625 142.773438 162.554688 C 142.773438 162.554688 143.132812 163.003906 143.132812 163.003906 L 134.375 161.875 C 131.878906 161.574219 128.1875 160.808594 125.65625 160.390625 C 108.234375 157.207031 91.257812 151.644531 75.179688 144.222656 C 75.179688 144.222656 76.789062 143.546875 76.789062 143.546875 C 72.105469 156.859375 65.351562 176.152344 60.53125 189.640625 C 54.980469 204.957031 48.960938 220.089844 43.644531 235.472656 C 43.644531 235.472656 42.660156 233.925781 42.660156 233.925781 C 46.34375 234.359375 50.027344 234.804688 53.707031 235.269531 C 72.121094 237.53125 90.464844 240.402344 108.539062 244.65625 C 115.765625 246.339844 122.945312 248.300781 129.902344 250.871094 C 119.285156 247.535156 108.367188 245.445312 97.425781 243.535156 C 90.226562 242.226562 82.746094 241.003906 75.5 240.105469 C 64.882812 238.738281 53.109375 237.417969 42.40625 236.265625 C 42.40625 236.265625 40.960938 236.105469 40.960938 236.105469 C 40.960938 236.105469 41.421875 234.71875 41.421875 234.71875 C 46.546875 219.238281 52.546875 204.074219 58.046875 188.738281 C 63.136719 174.703125 69.933594 155.359375 75.015625 141.527344 C 91.226562 149.304688 108.332031 155.34375 125.933594 159.039062 C 128.414062 159.53125 132.078125 160.375 134.554688 160.769531 C 134.554688 160.769531 143.25 162.171875 143.25 162.171875 C 143.25 162.171875 143.644531 162.238281 143.644531 162.238281 C 143.128906 167.441406 142.140625 177.492188 141.589844 182.6875 Z M 141.589844 182.6875 "/></g><g clip-rule="nonzero" clip-path="url(#282f53a43a)"><path style=" stroke:none;fill-rule:nonzero;fill:#ffffff;fill-opacity:1;" d="M 23.628906 222.5625 C 40.078125 197.296875 56.226562 171.761719 71.269531 145.609375 L 37.128906 232.628906 C 37.132812 232.628906 23.628906 222.5625 23.628906 222.5625 Z M 23.628906 222.5625 "/></g><g style="fill:#ffffff;fill-opacity:1;"><g transform="translate(107.017907, 236.722674)"><path style="stroke:none" d="M 3.0625 0.0625 C 2.550781 0.0625 2.054688 -0.0195312 1.578125 -0.1875 C 1.097656 -0.351562 0.726562 -0.570312 0.46875 -0.84375 L 0.765625 -1.421875 C 1.015625 -1.171875 1.347656 -0.960938 1.765625 -0.796875 C 2.191406 -0.640625 2.625 -0.5625 3.0625 -0.5625 C 3.695312 -0.5625 4.171875 -0.675781 4.484375 -0.90625 C 4.796875 -1.144531 4.953125 -1.445312 4.953125 -1.8125 C 4.953125 -2.09375 4.863281 -2.316406 4.6875 -2.484375 C 4.519531 -2.648438 4.3125 -2.773438 4.0625 -2.859375 C 3.820312 -2.953125 3.484375 -3.050781 3.046875 -3.15625 C 2.515625 -3.289062 2.09375 -3.421875 1.78125 -3.546875 C 1.46875 -3.671875 1.195312 -3.859375 0.96875 -4.109375 C 0.75 -4.359375 0.640625 -4.703125 0.640625 -5.140625 C 0.640625 -5.492188 0.734375 -5.816406 0.921875 -6.109375 C 1.109375 -6.398438 1.394531 -6.628906 1.78125 -6.796875 C 2.164062 -6.972656 2.644531 -7.0625 3.21875 -7.0625 C 3.613281 -7.0625 4.003906 -7.003906 4.390625 -6.890625 C 4.773438 -6.785156 5.109375 -6.632812 5.390625 -6.4375 L 5.140625 -5.84375 C 4.847656 -6.039062 4.535156 -6.1875 4.203125 -6.28125 C 3.867188 -6.382812 3.539062 -6.4375 3.21875 -6.4375 C 2.601562 -6.4375 2.140625 -6.316406 1.828125 -6.078125 C 1.523438 -5.835938 1.375 -5.53125 1.375 -5.15625 C 1.375 -4.875 1.457031 -4.648438 1.625 -4.484375 C 1.789062 -4.316406 2.003906 -4.1875 2.265625 -4.09375 C 2.523438 -4 2.867188 -3.898438 3.296875 -3.796875 C 3.804688 -3.671875 4.21875 -3.546875 4.53125 -3.421875 C 4.851562 -3.296875 5.125 -3.109375 5.34375 -2.859375 C 5.570312 -2.609375 5.6875 -2.269531 5.6875 -1.84375 C 5.6875 -1.488281 5.585938 -1.164062 5.390625 -0.875 C 5.203125 -0.59375 4.910156 -0.363281 4.515625 -0.1875 C 4.128906 -0.0195312 3.644531 0.0625 3.0625 0.0625 Z M 3.0625 0.0625 "/></g></g><g style="fill:#ffffff;fill-opacity:1;"><g transform="translate(113.165479, 236.722674)"><path style="stroke:none" d="M 0.984375 -5.265625 L 1.703125 -5.265625 L 1.703125 0 L 0.984375 0 Z M 1.34375 -6.40625 C 1.195312 -6.40625 1.070312 -6.453125 0.96875 -6.546875 C 0.875 -6.648438 0.828125 -6.773438 0.828125 -6.921875 C 0.828125 -7.054688 0.875 -7.171875 0.96875 -7.265625 C 1.070312 -7.367188 1.195312 -7.421875 1.34375 -7.421875 C 1.488281 -7.421875 1.609375 -7.367188 1.703125 -7.265625 C 1.804688 -7.171875 1.859375 -7.0625 1.859375 -6.9375 C 1.859375 -6.78125 1.804688 -6.648438 1.703125 -6.546875 C 1.609375 -6.453125 1.488281 -6.40625 1.34375 -6.40625 Z M 1.34375 -6.40625 "/></g></g><g style="fill:#ffffff;fill-opacity:1;"><g transform="translate(115.854417, 236.722674)"><path style="stroke:none" d="M 7.546875 -5.296875 C 8.210938 -5.296875 8.734375 -5.101562 9.109375 -4.71875 C 9.484375 -4.34375 9.671875 -3.785156 9.671875 -3.046875 L 9.671875 0 L 8.953125 0 L 8.953125 -2.984375 C 8.953125 -3.523438 8.820312 -3.9375 8.5625 -4.21875 C 8.300781 -4.507812 7.929688 -4.65625 7.453125 -4.65625 C 6.898438 -4.65625 6.46875 -4.488281 6.15625 -4.15625 C 5.84375 -3.820312 5.6875 -3.359375 5.6875 -2.765625 L 5.6875 0 L 4.984375 0 L 4.984375 -2.984375 C 4.984375 -3.523438 4.847656 -3.9375 4.578125 -4.21875 C 4.316406 -4.507812 3.941406 -4.65625 3.453125 -4.65625 C 2.921875 -4.65625 2.492188 -4.488281 2.171875 -4.15625 C 1.859375 -3.820312 1.703125 -3.359375 1.703125 -2.765625 L 1.703125 0 L 0.984375 0 L 0.984375 -5.265625 L 1.671875 -5.265625 L 1.671875 -4.296875 C 1.859375 -4.617188 2.117188 -4.863281 2.453125 -5.03125 C 2.785156 -5.207031 3.164062 -5.296875 3.59375 -5.296875 C 4.039062 -5.296875 4.425781 -5.203125 4.75 -5.015625 C 5.070312 -4.828125 5.3125 -4.550781 5.46875 -4.1875 C 5.664062 -4.53125 5.941406 -4.800781 6.296875 -5 C 6.660156 -5.195312 7.078125 -5.296875 7.546875 -5.296875 Z M 7.546875 -5.296875 "/></g></g><g style="fill:#ffffff;fill-opacity:1;"><g transform="translate(126.460228, 236.722674)"><path style="stroke:none" d="M 3.703125 -5.296875 C 4.191406 -5.296875 4.632812 -5.179688 5.03125 -4.953125 C 5.4375 -4.734375 5.75 -4.421875 5.96875 -4.015625 C 6.195312 -3.609375 6.3125 -3.144531 6.3125 -2.625 C 6.3125 -2.101562 6.195312 -1.640625 5.96875 -1.234375 C 5.75 -0.828125 5.441406 -0.507812 5.046875 -0.28125 C 4.648438 -0.0625 4.203125 0.046875 3.703125 0.046875 C 3.273438 0.046875 2.890625 -0.0390625 2.546875 -0.21875 C 2.203125 -0.394531 1.921875 -0.648438 1.703125 -0.984375 L 1.703125 1.9375 L 0.984375 1.9375 L 0.984375 -5.265625 L 1.671875 -5.265625 L 1.671875 -4.21875 C 1.878906 -4.5625 2.160156 -4.828125 2.515625 -5.015625 C 2.867188 -5.203125 3.265625 -5.296875 3.703125 -5.296875 Z M 3.65625 -0.578125 C 4.019531 -0.578125 4.347656 -0.660156 4.640625 -0.828125 C 4.941406 -1.003906 5.175781 -1.25 5.34375 -1.5625 C 5.519531 -1.875 5.609375 -2.226562 5.609375 -2.625 C 5.609375 -3.03125 5.519531 -3.382812 5.34375 -3.6875 C 5.175781 -4 4.941406 -4.242188 4.640625 -4.421875 C 4.347656 -4.597656 4.019531 -4.6875 3.65625 -4.6875 C 3.28125 -4.6875 2.941406 -4.597656 2.640625 -4.421875 C 2.347656 -4.242188 2.113281 -4 1.9375 -3.6875 C 1.769531 -3.382812 1.6875 -3.03125 1.6875 -2.625 C 1.6875 -2.226562 1.769531 -1.875 1.9375 -1.5625 C 2.113281 -1.25 2.347656 -1.003906 2.640625 -0.828125 C 2.941406 -0.660156 3.28125 -0.578125 3.65625 -0.578125 Z M 3.65625 -0.578125 "/></g></g><g style="fill:#ffffff;fill-opacity:1;"><g transform="translate(133.237556, 236.722674)"><path style="stroke:none" d="M 0.984375 -7.421875 L 1.703125 -7.421875 L 1.703125 0 L 0.984375 0 Z M 0.984375 -7.421875 "/></g></g><g style="fill:#ffffff;fill-opacity:1;"><g transform="translate(135.926494, 236.722674)"><path style="stroke:none" d="M 0.984375 -5.265625 L 1.703125 -5.265625 L 1.703125 0 L 0.984375 0 Z M 1.34375 -6.40625 C 1.195312 -6.40625 1.070312 -6.453125 0.96875 -6.546875 C 0.875 -6.648438 0.828125 -6.773438 0.828125 -6.921875 C 0.828125 -7.054688 0.875 -7.171875 0.96875 -7.265625 C 1.070312 -7.367188 1.195312 -7.421875 1.34375 -7.421875 C 1.488281 -7.421875 1.609375 -7.367188 1.703125 -7.265625 C 1.804688 -7.171875 1.859375 -7.0625 1.859375 -6.9375 C 1.859375 -6.78125 1.804688 -6.648438 1.703125 -6.546875 C 1.609375 -6.453125 1.488281 -6.40625 1.34375 -6.40625 Z M 1.34375 -6.40625 "/></g></g><g style="fill:#ffffff;fill-opacity:1;"><g transform="translate(138.615432, 236.722674)"><path style="stroke:none" d="M 2.734375 -6.875 C 2.421875 -6.875 2.1875 -6.789062 2.03125 -6.625 C 1.875 -6.457031 1.796875 -6.207031 1.796875 -5.875 L 1.796875 -5.265625 L 3.421875 -5.265625 L 3.421875 -4.65625 L 1.8125 -4.65625 L 1.8125 0 L 1.109375 0 L 1.109375 -4.65625 L 0.171875 -4.65625 L 0.171875 -5.265625 L 1.109375 -5.265625 L 1.109375 -5.90625 C 1.109375 -6.382812 1.242188 -6.765625 1.515625 -7.046875 C 1.796875 -7.328125 2.191406 -7.46875 2.703125 -7.46875 C 2.898438 -7.46875 3.09375 -7.4375 3.28125 -7.375 C 3.46875 -7.320312 3.625 -7.242188 3.75 -7.140625 L 3.515625 -6.609375 C 3.304688 -6.785156 3.046875 -6.875 2.734375 -6.875 Z M 2.734375 -6.875 "/></g></g><g style="fill:#ffffff;fill-opacity:1;"><g transform="translate(142.104072, 236.722674)"><path style="stroke:none" d="M 5.40625 -5.265625 L 2.78125 0.625 C 2.5625 1.125 2.3125 1.472656 2.03125 1.671875 C 1.757812 1.878906 1.425781 1.984375 1.03125 1.984375 C 0.78125 1.984375 0.539062 1.941406 0.3125 1.859375 C 0.09375 1.785156 -0.09375 1.671875 -0.25 1.515625 L 0.078125 0.984375 C 0.347656 1.242188 0.671875 1.375 1.046875 1.375 C 1.285156 1.375 1.488281 1.304688 1.65625 1.171875 C 1.820312 1.046875 1.976562 0.820312 2.125 0.5 L 2.359375 -0.015625 L 0.015625 -5.265625 L 0.75 -5.265625 L 2.734375 -0.796875 L 4.703125 -5.265625 Z M 5.40625 -5.265625 "/></g></g><g style="fill:#ffffff;fill-opacity:1;"><g transform="translate(147.521933, 236.722674)"><path style="stroke:none" d=""/></g></g><g style="fill:#ffffff;fill-opacity:1;"><g transform="translate(150.140902, 236.722674)"><path style="stroke:none" d="M 3.546875 -2.421875 L 3.546875 0 L 2.8125 0 L 2.8125 -2.421875 L 0.015625 -7 L 0.796875 -7 L 3.203125 -3.0625 L 5.59375 -7 L 6.34375 -7 Z M 3.546875 -2.421875 "/></g></g><g style="fill:#ffffff;fill-opacity:1;"><g transform="translate(155.888548, 236.722674)"><path style="stroke:none" d="M 3.140625 0.046875 C 2.628906 0.046875 2.171875 -0.0664062 1.765625 -0.296875 C 1.359375 -0.523438 1.035156 -0.84375 0.796875 -1.25 C 0.566406 -1.65625 0.453125 -2.113281 0.453125 -2.625 C 0.453125 -3.144531 0.566406 -3.609375 0.796875 -4.015625 C 1.035156 -4.421875 1.359375 -4.734375 1.765625 -4.953125 C 2.171875 -5.179688 2.628906 -5.296875 3.140625 -5.296875 C 3.648438 -5.296875 4.109375 -5.179688 4.515625 -4.953125 C 4.921875 -4.734375 5.238281 -4.421875 5.46875 -4.015625 C 5.695312 -3.609375 5.8125 -3.144531 5.8125 -2.625 C 5.8125 -2.113281 5.695312 -1.65625 5.46875 -1.25 C 5.238281 -0.84375 4.921875 -0.523438 4.515625 -0.296875 C 4.109375 -0.0664062 3.648438 0.046875 3.140625 0.046875 Z M 3.140625 -0.578125 C 3.515625 -0.578125 3.847656 -0.660156 4.140625 -0.828125 C 4.441406 -1.003906 4.675781 -1.25 4.84375 -1.5625 C 5.007812 -1.875 5.09375 -2.226562 5.09375 -2.625 C 5.09375 -3.03125 5.007812 -3.390625 4.84375 -3.703125 C 4.675781 -4.015625 4.441406 -4.253906 4.140625 -4.421875 C 3.847656 -4.597656 3.515625 -4.6875 3.140625 -4.6875 C 2.765625 -4.6875 2.425781 -4.597656 2.125 -4.421875 C 1.832031 -4.253906 1.601562 -4.015625 1.4375 -3.703125 C 1.269531 -3.390625 1.1875 -3.03125 1.1875 -2.625 C 1.1875 -2.226562 1.269531 -1.875 1.4375 -1.5625 C 1.601562 -1.25 1.832031 -1.003906 2.125 -0.828125 C 2.425781 -0.660156 2.765625 -0.578125 3.140625 -0.578125 Z M 3.140625 -0.578125 "/></g></g><g style="fill:#ffffff;fill-opacity:1;"><g transform="translate(162.156076, 236.722674)"><path style="stroke:none" d="M 5.734375 -5.265625 L 5.734375 0 L 5.046875 0 L 5.046875 -0.953125 C 4.859375 -0.640625 4.601562 -0.394531 4.28125 -0.21875 C 3.957031 -0.0390625 3.582031 0.046875 3.15625 0.046875 C 2.46875 0.046875 1.925781 -0.140625 1.53125 -0.515625 C 1.132812 -0.898438 0.9375 -1.460938 0.9375 -2.203125 L 0.9375 -5.265625 L 1.65625 -5.265625 L 1.65625 -2.28125 C 1.65625 -1.726562 1.789062 -1.304688 2.0625 -1.015625 C 2.332031 -0.734375 2.722656 -0.59375 3.234375 -0.59375 C 3.785156 -0.59375 4.21875 -0.757812 4.53125 -1.09375 C 4.851562 -1.425781 5.015625 -1.894531 5.015625 -2.5 L 5.015625 -5.265625 Z M 5.734375 -5.265625 "/></g></g><g style="fill:#ffffff;fill-opacity:1;"><g transform="translate(168.883416, 236.722674)"><path style="stroke:none" d="M 1.671875 -4.234375 C 1.835938 -4.585938 2.082031 -4.851562 2.40625 -5.03125 C 2.738281 -5.207031 3.148438 -5.296875 3.640625 -5.296875 L 3.640625 -4.609375 L 3.46875 -4.625 C 2.914062 -4.625 2.484375 -4.453125 2.171875 -4.109375 C 1.859375 -3.765625 1.703125 -3.289062 1.703125 -2.6875 L 1.703125 0 L 0.984375 0 L 0.984375 -5.265625 L 1.671875 -5.265625 Z M 1.671875 -4.234375 "/></g></g><g style="fill:#ffffff;fill-opacity:1;"><g transform="translate(172.891835, 236.722674)"><path style="stroke:none" d=""/></g></g><g style="fill:#ffffff;fill-opacity:1;"><g transform="translate(175.510804, 236.722674)"><path style="stroke:none" d="M 3.0625 0.0625 C 2.550781 0.0625 2.054688 -0.0195312 1.578125 -0.1875 C 1.097656 -0.351562 0.726562 -0.570312 0.46875 -0.84375 L 0.765625 -1.421875 C 1.015625 -1.171875 1.347656 -0.960938 1.765625 -0.796875 C 2.191406 -0.640625 2.625 -0.5625 3.0625 -0.5625 C 3.695312 -0.5625 4.171875 -0.675781 4.484375 -0.90625 C 4.796875 -1.144531 4.953125 -1.445312 4.953125 -1.8125 C 4.953125 -2.09375 4.863281 -2.316406 4.6875 -2.484375 C 4.519531 -2.648438 4.3125 -2.773438 4.0625 -2.859375 C 3.820312 -2.953125 3.484375 -3.050781 3.046875 -3.15625 C 2.515625 -3.289062 2.09375 -3.421875 1.78125 -3.546875 C 1.46875 -3.671875 1.195312 -3.859375 0.96875 -4.109375 C 0.75 -4.359375 0.640625 -4.703125 0.640625 -5.140625 C 0.640625 -5.492188 0.734375 -5.816406 0.921875 -6.109375 C 1.109375 -6.398438 1.394531 -6.628906 1.78125 -6.796875 C 2.164062 -6.972656 2.644531 -7.0625 3.21875 -7.0625 C 3.613281 -7.0625 4.003906 -7.003906 4.390625 -6.890625 C 4.773438 -6.785156 5.109375 -6.632812 5.390625 -6.4375 L 5.140625 -5.84375 C 4.847656 -6.039062 4.535156 -6.1875 4.203125 -6.28125 C 3.867188 -6.382812 3.539062 -6.4375 3.21875 -6.4375 C 2.601562 -6.4375 2.140625 -6.316406 1.828125 -6.078125 C 1.523438 -5.835938 1.375 -5.53125 1.375 -5.15625 C 1.375 -4.875 1.457031 -4.648438 1.625 -4.484375 C 1.789062 -4.316406 2.003906 -4.1875 2.265625 -4.09375 C 2.523438 -4 2.867188 -3.898438 3.296875 -3.796875 C 3.804688 -3.671875 4.21875 -3.546875 4.53125 -3.421875 C 4.851562 -3.296875 5.125 -3.109375 5.34375 -2.859375 C 5.570312 -2.609375 5.6875 -2.269531 5.6875 -1.84375 C 5.6875 -1.488281 5.585938 -1.164062 5.390625 -0.875 C 5.203125 -0.59375 4.910156 -0.363281 4.515625 -0.1875 C 4.128906 -0.0195312 3.644531 0.0625 3.0625 0.0625 Z M 3.0625 0.0625 "/></g></g><g style="fill:#ffffff;fill-opacity:1;"><g transform="translate(181.658375, 236.722674)"><path style="stroke:none" d="M 3.765625 -0.3125 C 3.628906 -0.195312 3.460938 -0.109375 3.265625 -0.046875 C 3.066406 0.015625 2.863281 0.046875 2.65625 0.046875 C 2.15625 0.046875 1.769531 -0.0820312 1.5 -0.34375 C 1.238281 -0.613281 1.109375 -0.992188 1.109375 -1.484375 L 1.109375 -4.65625 L 0.171875 -4.65625 L 0.171875 -5.265625 L 1.109375 -5.265625 L 1.109375 -6.40625 L 1.8125 -6.40625 L 1.8125 -5.265625 L 3.421875 -5.265625 L 3.421875 -4.65625 L 1.8125 -4.65625 L 1.8125 -1.515625 C 1.8125 -1.203125 1.890625 -0.960938 2.046875 -0.796875 C 2.210938 -0.640625 2.441406 -0.5625 2.734375 -0.5625 C 2.878906 -0.5625 3.019531 -0.582031 3.15625 -0.625 C 3.289062 -0.675781 3.410156 -0.742188 3.515625 -0.828125 Z M 3.765625 -0.3125 "/></g></g><g style="fill:#ffffff;fill-opacity:1;"><g transform="translate(185.616795, 236.722674)"><path style="stroke:none" d="M 5.40625 -5.265625 L 2.78125 0.625 C 2.5625 1.125 2.3125 1.472656 2.03125 1.671875 C 1.757812 1.878906 1.425781 1.984375 1.03125 1.984375 C 0.78125 1.984375 0.539062 1.941406 0.3125 1.859375 C 0.09375 1.785156 -0.09375 1.671875 -0.25 1.515625 L 0.078125 0.984375 C 0.347656 1.242188 0.671875 1.375 1.046875 1.375 C 1.285156 1.375 1.488281 1.304688 1.65625 1.171875 C 1.820312 1.046875 1.976562 0.820312 2.125 0.5 L 2.359375 -0.015625 L 0.015625 -5.265625 L 0.75 -5.265625 L 2.734375 -0.796875 L 4.703125 -5.265625 Z M 5.40625 -5.265625 "/></g></g><g style="fill:#ffffff;fill-opacity:1;"><g transform="translate(191.034656, 236.722674)"><path style="stroke:none" d="M 0.984375 -7.421875 L 1.703125 -7.421875 L 1.703125 0 L 0.984375 0 Z M 0.984375 -7.421875 "/></g></g><g style="fill:#ffffff;fill-opacity:1;"><g transform="translate(193.723594, 236.722674)"><path style="stroke:none" d="M 5.5625 -2.40625 L 1.171875 -2.40625 C 1.210938 -1.863281 1.421875 -1.421875 1.796875 -1.078125 C 2.179688 -0.742188 2.660156 -0.578125 3.234375 -0.578125 C 3.566406 -0.578125 3.867188 -0.632812 4.140625 -0.75 C 4.410156 -0.875 4.644531 -1.046875 4.84375 -1.265625 L 5.25 -0.8125 C 5.019531 -0.53125 4.726562 -0.316406 4.375 -0.171875 C 4.019531 -0.0234375 3.632812 0.046875 3.21875 0.046875 C 2.675781 0.046875 2.195312 -0.0664062 1.78125 -0.296875 C 1.363281 -0.523438 1.035156 -0.84375 0.796875 -1.25 C 0.566406 -1.65625 0.453125 -2.113281 0.453125 -2.625 C 0.453125 -3.144531 0.5625 -3.609375 0.78125 -4.015625 C 1.007812 -4.421875 1.316406 -4.734375 1.703125 -4.953125 C 2.097656 -5.179688 2.539062 -5.296875 3.03125 -5.296875 C 3.519531 -5.296875 3.957031 -5.179688 4.34375 -4.953125 C 4.726562 -4.734375 5.03125 -4.421875 5.25 -4.015625 C 5.46875 -3.609375 5.578125 -3.144531 5.578125 -2.625 Z M 3.03125 -4.6875 C 2.519531 -4.6875 2.09375 -4.523438 1.75 -4.203125 C 1.40625 -3.878906 1.210938 -3.457031 1.171875 -2.9375 L 4.90625 -2.9375 C 4.851562 -3.457031 4.65625 -3.878906 4.3125 -4.203125 C 3.96875 -4.523438 3.539062 -4.6875 3.03125 -4.6875 Z M 3.03125 -4.6875 "/></g></g><g style="fill:#ffffff;fill-opacity:1;"><g transform="translate(199.76121, 236.722674)"><path style="stroke:none" d="M 1.0625 -1.046875 C 1.21875 -1.046875 1.34375 -0.992188 1.4375 -0.890625 C 1.539062 -0.785156 1.59375 -0.65625 1.59375 -0.5 C 1.59375 -0.414062 1.582031 -0.328125 1.5625 -0.234375 C 1.539062 -0.140625 1.503906 -0.0351562 1.453125 0.078125 L 1.046875 1.453125 L 0.5625 1.453125 L 0.90625 0.015625 C 0.789062 -0.0234375 0.703125 -0.0859375 0.640625 -0.171875 C 0.578125 -0.265625 0.546875 -0.375 0.546875 -0.5 C 0.546875 -0.65625 0.59375 -0.785156 0.6875 -0.890625 C 0.789062 -0.992188 0.914062 -1.046875 1.0625 -1.046875 Z M 1.0625 -1.046875 "/></g></g><g style="fill:#ffffff;fill-opacity:1;"><g transform="translate(201.88037, 236.722674)"><path style="stroke:none" d=""/></g></g><g style="fill:#ffffff;fill-opacity:1;"><g transform="translate(204.499339, 236.722674)"><path style="stroke:none" d="M 6.09375 -0.640625 L 6.09375 0 L 1.140625 0 L 1.140625 -7 L 5.9375 -7 L 5.9375 -6.359375 L 1.875 -6.359375 L 1.875 -3.875 L 5.5 -3.875 L 5.5 -3.234375 L 1.875 -3.234375 L 1.875 -0.640625 Z M 6.09375 -0.640625 "/></g></g><g style="fill:#ffffff;fill-opacity:1;"><g transform="translate(211.186705, 236.722674)"><path style="stroke:none" d="M 7.546875 -5.296875 C 8.210938 -5.296875 8.734375 -5.101562 9.109375 -4.71875 C 9.484375 -4.34375 9.671875 -3.785156 9.671875 -3.046875 L 9.671875 0 L 8.953125 0 L 8.953125 -2.984375 C 8.953125 -3.523438 8.820312 -3.9375 8.5625 -4.21875 C 8.300781 -4.507812 7.929688 -4.65625 7.453125 -4.65625 C 6.898438 -4.65625 6.46875 -4.488281 6.15625 -4.15625 C 5.84375 -3.820312 5.6875 -3.359375 5.6875 -2.765625 L 5.6875 0 L 4.984375 0 L 4.984375 -2.984375 C 4.984375 -3.523438 4.847656 -3.9375 4.578125 -4.21875 C 4.316406 -4.507812 3.941406 -4.65625 3.453125 -4.65625 C 2.921875 -4.65625 2.492188 -4.488281 2.171875 -4.15625 C 1.859375 -3.820312 1.703125 -3.359375 1.703125 -2.765625 L 1.703125 0 L 0.984375 0 L 0.984375 -5.265625 L 1.671875 -5.265625 L 1.671875 -4.296875 C 1.859375 -4.617188 2.117188 -4.863281 2.453125 -5.03125 C 2.785156 -5.207031 3.164062 -5.296875 3.59375 -5.296875 C 4.039062 -5.296875 4.425781 -5.203125 4.75 -5.015625 C 5.070312 -4.828125 5.3125 -4.550781 5.46875 -4.1875 C 5.664062 -4.53125 5.941406 -4.800781 6.296875 -5 C 6.660156 -5.195312 7.078125 -5.296875 7.546875 -5.296875 Z M 7.546875 -5.296875 "/></g></g><g style="fill:#ffffff;fill-opacity:1;"><g transform="translate(221.792516, 236.722674)"><path style="stroke:none" d="M 3.703125 -5.296875 C 4.191406 -5.296875 4.632812 -5.179688 5.03125 -4.953125 C 5.4375 -4.734375 5.75 -4.421875 5.96875 -4.015625 C 6.195312 -3.609375 6.3125 -3.144531 6.3125 -2.625 C 6.3125 -2.101562 6.195312 -1.640625 5.96875 -1.234375 C 5.75 -0.828125 5.441406 -0.507812 5.046875 -0.28125 C 4.648438 -0.0625 4.203125 0.046875 3.703125 0.046875 C 3.273438 0.046875 2.890625 -0.0390625 2.546875 -0.21875 C 2.203125 -0.394531 1.921875 -0.648438 1.703125 -0.984375 L 1.703125 1.9375 L 0.984375 1.9375 L 0.984375 -5.265625 L 1.671875 -5.265625 L 1.671875 -4.21875 C 1.878906 -4.5625 2.160156 -4.828125 2.515625 -5.015625 C 2.867188 -5.203125 3.265625 -5.296875 3.703125 -5.296875 Z M 3.65625 -0.578125 C 4.019531 -0.578125 4.347656 -0.660156 4.640625 -0.828125 C 4.941406 -1.003906 5.175781 -1.25 5.34375 -1.5625 C 5.519531 -1.875 5.609375 -2.226562 5.609375 -2.625 C 5.609375 -3.03125 5.519531 -3.382812 5.34375 -3.6875 C 5.175781 -4 4.941406 -4.242188 4.640625 -4.421875 C 4.347656 -4.597656 4.019531 -4.6875 3.65625 -4.6875 C 3.28125 -4.6875 2.941406 -4.597656 2.640625 -4.421875 C 2.347656 -4.242188 2.113281 -4 1.9375 -3.6875 C 1.769531 -3.382812 1.6875 -3.03125 1.6875 -2.625 C 1.6875 -2.226562 1.769531 -1.875 1.9375 -1.5625 C 2.113281 -1.25 2.347656 -1.003906 2.640625 -0.828125 C 2.941406 -0.660156 3.28125 -0.578125 3.65625 -0.578125 Z M 3.65625 -0.578125 "/></g></g><g style="fill:#ffffff;fill-opacity:1;"><g transform="translate(228.569844, 236.722674)"><path style="stroke:none" d="M 3.140625 0.046875 C 2.628906 0.046875 2.171875 -0.0664062 1.765625 -0.296875 C 1.359375 -0.523438 1.035156 -0.84375 0.796875 -1.25 C 0.566406 -1.65625 0.453125 -2.113281 0.453125 -2.625 C 0.453125 -3.144531 0.566406 -3.609375 0.796875 -4.015625 C 1.035156 -4.421875 1.359375 -4.734375 1.765625 -4.953125 C 2.171875 -5.179688 2.628906 -5.296875 3.140625 -5.296875 C 3.648438 -5.296875 4.109375 -5.179688 4.515625 -4.953125 C 4.921875 -4.734375 5.238281 -4.421875 5.46875 -4.015625 C 5.695312 -3.609375 5.8125 -3.144531 5.8125 -2.625 C 5.8125 -2.113281 5.695312 -1.65625 5.46875 -1.25 C 5.238281 -0.84375 4.921875 -0.523438 4.515625 -0.296875 C 4.109375 -0.0664062 3.648438 0.046875 3.140625 0.046875 Z M 3.140625 -0.578125 C 3.515625 -0.578125 3.847656 -0.660156 4.140625 -0.828125 C 4.441406 -1.003906 4.675781 -1.25 4.84375 -1.5625 C 5.007812 -1.875 5.09375 -2.226562 5.09375 -2.625 C 5.09375 -3.03125 5.007812 -3.390625 4.84375 -3.703125 C 4.675781 -4.015625 4.441406 -4.253906 4.140625 -4.421875 C 3.847656 -4.597656 3.515625 -4.6875 3.140625 -4.6875 C 2.765625 -4.6875 2.425781 -4.597656 2.125 -4.421875 C 1.832031 -4.253906 1.601562 -4.015625 1.4375 -3.703125 C 1.269531 -3.390625 1.1875 -3.03125 1.1875 -2.625 C 1.1875 -2.226562 1.269531 -1.875 1.4375 -1.5625 C 1.601562 -1.25 1.832031 -1.003906 2.125 -0.828125 C 2.425781 -0.660156 2.765625 -0.578125 3.140625 -0.578125 Z M 3.140625 -0.578125 "/></g></g><g style="fill:#ffffff;fill-opacity:1;"><g transform="translate(234.687409, 236.722674)"><path style="stroke:none" d="M 8.703125 -5.265625 L 6.71875 0 L 6.046875 0 L 4.390625 -4.3125 L 2.734375 0 L 2.0625 0 L 0.078125 -5.265625 L 0.765625 -5.265625 L 2.40625 -0.796875 L 4.09375 -5.265625 L 4.703125 -5.265625 L 6.390625 -0.796875 L 8.0625 -5.265625 Z M 8.703125 -5.265625 "/></g></g><g style="fill:#ffffff;fill-opacity:1;"><g transform="translate(243.323978, 236.722674)"><path style="stroke:none" d="M 5.5625 -2.40625 L 1.171875 -2.40625 C 1.210938 -1.863281 1.421875 -1.421875 1.796875 -1.078125 C 2.179688 -0.742188 2.660156 -0.578125 3.234375 -0.578125 C 3.566406 -0.578125 3.867188 -0.632812 4.140625 -0.75 C 4.410156 -0.875 4.644531 -1.046875 4.84375 -1.265625 L 5.25 -0.8125 C 5.019531 -0.53125 4.726562 -0.316406 4.375 -0.171875 C 4.019531 -0.0234375 3.632812 0.046875 3.21875 0.046875 C 2.675781 0.046875 2.195312 -0.0664062 1.78125 -0.296875 C 1.363281 -0.523438 1.035156 -0.84375 0.796875 -1.25 C 0.566406 -1.65625 0.453125 -2.113281 0.453125 -2.625 C 0.453125 -3.144531 0.5625 -3.609375 0.78125 -4.015625 C 1.007812 -4.421875 1.316406 -4.734375 1.703125 -4.953125 C 2.097656 -5.179688 2.539062 -5.296875 3.03125 -5.296875 C 3.519531 -5.296875 3.957031 -5.179688 4.34375 -4.953125 C 4.726562 -4.734375 5.03125 -4.421875 5.25 -4.015625 C 5.46875 -3.609375 5.578125 -3.144531 5.578125 -2.625 Z M 3.03125 -4.6875 C 2.519531 -4.6875 2.09375 -4.523438 1.75 -4.203125 C 1.40625 -3.878906 1.210938 -3.457031 1.171875 -2.9375 L 4.90625 -2.9375 C 4.851562 -3.457031 4.65625 -3.878906 4.3125 -4.203125 C 3.96875 -4.523438 3.539062 -4.6875 3.03125 -4.6875 Z M 3.03125 -4.6875 "/></g></g><g style="fill:#ffffff;fill-opacity:1;"><g transform="translate(249.361595, 236.722674)"><path style="stroke:none" d="M 1.671875 -4.234375 C 1.835938 -4.585938 2.082031 -4.851562 2.40625 -5.03125 C 2.738281 -5.207031 3.148438 -5.296875 3.640625 -5.296875 L 3.640625 -4.609375 L 3.46875 -4.625 C 2.914062 -4.625 2.484375 -4.453125 2.171875 -4.109375 C 1.859375 -3.765625 1.703125 -3.289062 1.703125 -2.6875 L 1.703125 0 L 0.984375 0 L 0.984375 -5.265625 L 1.671875 -5.265625 Z M 1.671875 -4.234375 "/></g></g><g style="fill:#ffffff;fill-opacity:1;"><g transform="translate(253.370013, 236.722674)"><path style="stroke:none" d=""/></g></g><g style="fill:#ffffff;fill-opacity:1;"><g transform="translate(255.988982, 236.722674)"><path style="stroke:none" d="M 3.546875 -2.421875 L 3.546875 0 L 2.8125 0 L 2.8125 -2.421875 L 0.015625 -7 L 0.796875 -7 L 3.203125 -3.0625 L 5.59375 -7 L 6.34375 -7 Z M 3.546875 -2.421875 "/></g></g><g style="fill:#ffffff;fill-opacity:1;"><g transform="translate(261.736628, 236.722674)"><path style="stroke:none" d="M 3.140625 0.046875 C 2.628906 0.046875 2.171875 -0.0664062 1.765625 -0.296875 C 1.359375 -0.523438 1.035156 -0.84375 0.796875 -1.25 C 0.566406 -1.65625 0.453125 -2.113281 0.453125 -2.625 C 0.453125 -3.144531 0.566406 -3.609375 0.796875 -4.015625 C 1.035156 -4.421875 1.359375 -4.734375 1.765625 -4.953125 C 2.171875 -5.179688 2.628906 -5.296875 3.140625 -5.296875 C 3.648438 -5.296875 4.109375 -5.179688 4.515625 -4.953125 C 4.921875 -4.734375 5.238281 -4.421875 5.46875 -4.015625 C 5.695312 -3.609375 5.8125 -3.144531 5.8125 -2.625 C 5.8125 -2.113281 5.695312 -1.65625 5.46875 -1.25 C 5.238281 -0.84375 4.921875 -0.523438 4.515625 -0.296875 C 4.109375 -0.0664062 3.648438 0.046875 3.140625 0.046875 Z M 3.140625 -0.578125 C 3.515625 -0.578125 3.847656 -0.660156 4.140625 -0.828125 C 4.441406 -1.003906 4.675781 -1.25 4.84375 -1.5625 C 5.007812 -1.875 5.09375 -2.226562 5.09375 -2.625 C 5.09375 -3.03125 5.007812 -3.390625 4.84375 -3.703125 C 4.675781 -4.015625 4.441406 -4.253906 4.140625 -4.421875 C 3.847656 -4.597656 3.515625 -4.6875 3.140625 -4.6875 C 2.765625 -4.6875 2.425781 -4.597656 2.125 -4.421875 C 1.832031 -4.253906 1.601562 -4.015625 1.4375 -3.703125 C 1.269531 -3.390625 1.1875 -3.03125 1.1875 -2.625 C 1.1875 -2.226562 1.269531 -1.875 1.4375 -1.5625 C 1.601562 -1.25 1.832031 -1.003906 2.125 -0.828125 C 2.425781 -0.660156 2.765625 -0.578125 3.140625 -0.578125 Z M 3.140625 -0.578125 "/></g></g><g style="fill:#ffffff;fill-opacity:1;"><g transform="translate(268.004156, 236.722674)"><path style="stroke:none" d="M 5.734375 -5.265625 L 5.734375 0 L 5.046875 0 L 5.046875 -0.953125 C 4.859375 -0.640625 4.601562 -0.394531 4.28125 -0.21875 C 3.957031 -0.0390625 3.582031 0.046875 3.15625 0.046875 C 2.46875 0.046875 1.925781 -0.140625 1.53125 -0.515625 C 1.132812 -0.898438 0.9375 -1.460938 0.9375 -2.203125 L 0.9375 -5.265625 L 1.65625 -5.265625 L 1.65625 -2.28125 C 1.65625 -1.726562 1.789062 -1.304688 2.0625 -1.015625 C 2.332031 -0.734375 2.722656 -0.59375 3.234375 -0.59375 C 3.785156 -0.59375 4.21875 -0.757812 4.53125 -1.09375 C 4.851562 -1.425781 5.015625 -1.894531 5.015625 -2.5 L 5.015625 -5.265625 Z M 5.734375 -5.265625 "/></g></g><g style="fill:#ffffff;fill-opacity:1;"><g transform="translate(274.731497, 236.722674)"><path style="stroke:none" d="M 1.671875 -4.234375 C 1.835938 -4.585938 2.082031 -4.851562 2.40625 -5.03125 C 2.738281 -5.207031 3.148438 -5.296875 3.640625 -5.296875 L 3.640625 -4.609375 L 3.46875 -4.625 C 2.914062 -4.625 2.484375 -4.453125 2.171875 -4.109375 C 1.859375 -3.765625 1.703125 -3.289062 1.703125 -2.6875 L 1.703125 0 L 0.984375 0 L 0.984375 -5.265625 L 1.671875 -5.265625 Z M 1.671875 -4.234375 "/></g></g><g style="fill:#ffffff;fill-opacity:1;"><g transform="translate(278.739915, 236.722674)"><path style="stroke:none" d=""/></g></g><g style="fill:#ffffff;fill-opacity:1;"><g transform="translate(281.358884, 236.722674)"><path style="stroke:none" d="M 3.765625 -7 C 4.648438 -7 5.347656 -6.785156 5.859375 -6.359375 C 6.367188 -5.929688 6.625 -5.34375 6.625 -4.59375 C 6.625 -3.851562 6.367188 -3.269531 5.859375 -2.84375 C 5.347656 -2.414062 4.648438 -2.203125 3.765625 -2.203125 L 1.875 -2.203125 L 1.875 0 L 1.140625 0 L 1.140625 -7 Z M 3.734375 -2.859375 C 4.429688 -2.859375 4.960938 -3.007812 5.328125 -3.3125 C 5.691406 -3.613281 5.875 -4.039062 5.875 -4.59375 C 5.875 -5.164062 5.691406 -5.601562 5.328125 -5.90625 C 4.960938 -6.207031 4.429688 -6.359375 3.734375 -6.359375 L 1.875 -6.359375 L 1.875 -2.859375 Z M 3.734375 -2.859375 "/></g></g><g style="fill:#ffffff;fill-opacity:1;"><g transform="translate(288.306111, 236.722674)"><path style="stroke:none" d="M 1.671875 -4.234375 C 1.835938 -4.585938 2.082031 -4.851562 2.40625 -5.03125 C 2.738281 -5.207031 3.148438 -5.296875 3.640625 -5.296875 L 3.640625 -4.609375 L 3.46875 -4.625 C 2.914062 -4.625 2.484375 -4.453125 2.171875 -4.109375 C 1.859375 -3.765625 1.703125 -3.289062 1.703125 -2.6875 L 1.703125 0 L 0.984375 0 L 0.984375 -5.265625 L 1.671875 -5.265625 Z M 1.671875 -4.234375 "/></g></g><g style="fill:#ffffff;fill-opacity:1;"><g transform="translate(292.184559, 236.722674)"><path style="stroke:none" d="M 5.5625 -2.40625 L 1.171875 -2.40625 C 1.210938 -1.863281 1.421875 -1.421875 1.796875 -1.078125 C 2.179688 -0.742188 2.660156 -0.578125 3.234375 -0.578125 C 3.566406 -0.578125 3.867188 -0.632812 4.140625 -0.75 C 4.410156 -0.875 4.644531 -1.046875 4.84375 -1.265625 L 5.25 -0.8125 C 5.019531 -0.53125 4.726562 -0.316406 4.375 -0.171875 C 4.019531 -0.0234375 3.632812 0.046875 3.21875 0.046875 C 2.675781 0.046875 2.195312 -0.0664062 1.78125 -0.296875 C 1.363281 -0.523438 1.035156 -0.84375 0.796875 -1.25 C 0.566406 -1.65625 0.453125 -2.113281 0.453125 -2.625 C 0.453125 -3.144531 0.5625 -3.609375 0.78125 -4.015625 C 1.007812 -4.421875 1.316406 -4.734375 1.703125 -4.953125 C 2.097656 -5.179688 2.539062 -5.296875 3.03125 -5.296875 C 3.519531 -5.296875 3.957031 -5.179688 4.34375 -4.953125 C 4.726562 -4.734375 5.03125 -4.421875 5.25 -4.015625 C 5.46875 -3.609375 5.578125 -3.144531 5.578125 -2.625 Z M 3.03125 -4.6875 C 2.519531 -4.6875 2.09375 -4.523438 1.75 -4.203125 C 1.40625 -3.878906 1.210938 -3.457031 1.171875 -2.9375 L 4.90625 -2.9375 C 4.851562 -3.457031 4.65625 -3.878906 4.3125 -4.203125 C 3.96875 -4.523438 3.539062 -4.6875 3.03125 -4.6875 Z M 3.03125 -4.6875 "/></g></g><g style="fill:#ffffff;fill-opacity:1;"><g transform="translate(298.222176, 236.722674)"><path style="stroke:none" d="M 2.40625 0.046875 C 1.976562 0.046875 1.566406 -0.0078125 1.171875 -0.125 C 0.785156 -0.25 0.484375 -0.40625 0.265625 -0.59375 L 0.578125 -1.15625 C 0.796875 -0.988281 1.070312 -0.847656 1.40625 -0.734375 C 1.738281 -0.617188 2.085938 -0.5625 2.453125 -0.5625 C 2.929688 -0.5625 3.285156 -0.632812 3.515625 -0.78125 C 3.742188 -0.9375 3.859375 -1.15625 3.859375 -1.4375 C 3.859375 -1.625 3.796875 -1.769531 3.671875 -1.875 C 3.546875 -1.988281 3.382812 -2.070312 3.1875 -2.125 C 3 -2.1875 2.742188 -2.242188 2.421875 -2.296875 C 1.992188 -2.378906 1.648438 -2.460938 1.390625 -2.546875 C 1.128906 -2.628906 0.90625 -2.769531 0.71875 -2.96875 C 0.539062 -3.164062 0.453125 -3.441406 0.453125 -3.796875 C 0.453125 -4.234375 0.632812 -4.59375 1 -4.875 C 1.363281 -5.15625 1.875 -5.296875 2.53125 -5.296875 C 2.875 -5.296875 3.210938 -5.25 3.546875 -5.15625 C 3.890625 -5.070312 4.171875 -4.957031 4.390625 -4.8125 L 4.078125 -4.234375 C 3.648438 -4.535156 3.132812 -4.6875 2.53125 -4.6875 C 2.070312 -4.6875 1.726562 -4.601562 1.5 -4.4375 C 1.269531 -4.28125 1.15625 -4.070312 1.15625 -3.8125 C 1.15625 -3.613281 1.21875 -3.453125 1.34375 -3.328125 C 1.476562 -3.210938 1.640625 -3.125 1.828125 -3.0625 C 2.023438 -3.007812 2.296875 -2.957031 2.640625 -2.90625 C 3.054688 -2.820312 3.390625 -2.738281 3.640625 -2.65625 C 3.898438 -2.582031 4.117188 -2.445312 4.296875 -2.25 C 4.472656 -2.050781 4.5625 -1.785156 4.5625 -1.453125 C 4.5625 -0.992188 4.367188 -0.628906 3.984375 -0.359375 C 3.609375 -0.0859375 3.082031 0.046875 2.40625 0.046875 Z M 2.40625 0.046875 "/></g></g><g style="fill:#ffffff;fill-opacity:1;"><g transform="translate(303.110256, 236.722674)"><path style="stroke:none" d="M 5.5625 -2.40625 L 1.171875 -2.40625 C 1.210938 -1.863281 1.421875 -1.421875 1.796875 -1.078125 C 2.179688 -0.742188 2.660156 -0.578125 3.234375 -0.578125 C 3.566406 -0.578125 3.867188 -0.632812 4.140625 -0.75 C 4.410156 -0.875 4.644531 -1.046875 4.84375 -1.265625 L 5.25 -0.8125 C 5.019531 -0.53125 4.726562 -0.316406 4.375 -0.171875 C 4.019531 -0.0234375 3.632812 0.046875 3.21875 0.046875 C 2.675781 0.046875 2.195312 -0.0664062 1.78125 -0.296875 C 1.363281 -0.523438 1.035156 -0.84375 0.796875 -1.25 C 0.566406 -1.65625 0.453125 -2.113281 0.453125 -2.625 C 0.453125 -3.144531 0.5625 -3.609375 0.78125 -4.015625 C 1.007812 -4.421875 1.316406 -4.734375 1.703125 -4.953125 C 2.097656 -5.179688 2.539062 -5.296875 3.03125 -5.296875 C 3.519531 -5.296875 3.957031 -5.179688 4.34375 -4.953125 C 4.726562 -4.734375 5.03125 -4.421875 5.25 -4.015625 C 5.46875 -3.609375 5.578125 -3.144531 5.578125 -2.625 Z M 3.03125 -4.6875 C 2.519531 -4.6875 2.09375 -4.523438 1.75 -4.203125 C 1.40625 -3.878906 1.210938 -3.457031 1.171875 -2.9375 L 4.90625 -2.9375 C 4.851562 -3.457031 4.65625 -3.878906 4.3125 -4.203125 C 3.96875 -4.523438 3.539062 -4.6875 3.03125 -4.6875 Z M 3.03125 -4.6875 "/></g></g><g style="fill:#ffffff;fill-opacity:1;"><g transform="translate(309.147861, 236.722674)"><path style="stroke:none" d="M 3.671875 -5.296875 C 4.328125 -5.296875 4.847656 -5.101562 5.234375 -4.71875 C 5.628906 -4.34375 5.828125 -3.785156 5.828125 -3.046875 L 5.828125 0 L 5.125 0 L 5.125 -2.984375 C 5.125 -3.523438 4.984375 -3.9375 4.703125 -4.21875 C 4.429688 -4.507812 4.046875 -4.65625 3.546875 -4.65625 C 2.972656 -4.65625 2.519531 -4.488281 2.1875 -4.15625 C 1.863281 -3.820312 1.703125 -3.359375 1.703125 -2.765625 L 1.703125 0 L 0.984375 0 L 0.984375 -5.265625 L 1.671875 -5.265625 L 1.671875 -4.296875 C 1.859375 -4.609375 2.125 -4.851562 2.46875 -5.03125 C 2.8125 -5.207031 3.210938 -5.296875 3.671875 -5.296875 Z M 3.671875 -5.296875 "/></g></g><g style="fill:#ffffff;fill-opacity:1;"><g transform="translate(315.935191, 236.722674)"><path style="stroke:none" d="M 3.171875 0.046875 C 2.648438 0.046875 2.179688 -0.0625 1.765625 -0.28125 C 1.359375 -0.507812 1.035156 -0.828125 0.796875 -1.234375 C 0.566406 -1.648438 0.453125 -2.113281 0.453125 -2.625 C 0.453125 -3.144531 0.566406 -3.609375 0.796875 -4.015625 C 1.035156 -4.421875 1.359375 -4.734375 1.765625 -4.953125 C 2.179688 -5.179688 2.648438 -5.296875 3.171875 -5.296875 C 3.617188 -5.296875 4.019531 -5.207031 4.375 -5.03125 C 4.738281 -4.851562 5.023438 -4.597656 5.234375 -4.265625 L 4.703125 -3.90625 C 4.523438 -4.164062 4.300781 -4.359375 4.03125 -4.484375 C 3.769531 -4.617188 3.484375 -4.6875 3.171875 -4.6875 C 2.785156 -4.6875 2.441406 -4.597656 2.140625 -4.421875 C 1.835938 -4.253906 1.601562 -4.015625 1.4375 -3.703125 C 1.269531 -3.390625 1.1875 -3.03125 1.1875 -2.625 C 1.1875 -2.21875 1.269531 -1.859375 1.4375 -1.546875 C 1.601562 -1.242188 1.835938 -1.003906 2.140625 -0.828125 C 2.441406 -0.660156 2.785156 -0.578125 3.171875 -0.578125 C 3.484375 -0.578125 3.769531 -0.640625 4.03125 -0.765625 C 4.300781 -0.890625 4.523438 -1.082031 4.703125 -1.34375 L 5.234375 -0.984375 C 5.023438 -0.648438 4.738281 -0.394531 4.375 -0.21875 C 4.019531 -0.0390625 3.617188 0.046875 3.171875 0.046875 Z M 3.171875 0.046875 "/></g></g><g style="fill:#ffffff;fill-opacity:1;"><g transform="translate(321.472987, 236.722674)"><path style="stroke:none" d="M 5.5625 -2.40625 L 1.171875 -2.40625 C 1.210938 -1.863281 1.421875 -1.421875 1.796875 -1.078125 C 2.179688 -0.742188 2.660156 -0.578125 3.234375 -0.578125 C 3.566406 -0.578125 3.867188 -0.632812 4.140625 -0.75 C 4.410156 -0.875 4.644531 -1.046875 4.84375 -1.265625 L 5.25 -0.8125 C 5.019531 -0.53125 4.726562 -0.316406 4.375 -0.171875 C 4.019531 -0.0234375 3.632812 0.046875 3.21875 0.046875 C 2.675781 0.046875 2.195312 -0.0664062 1.78125 -0.296875 C 1.363281 -0.523438 1.035156 -0.84375 0.796875 -1.25 C 0.566406 -1.65625 0.453125 -2.113281 0.453125 -2.625 C 0.453125 -3.144531 0.5625 -3.609375 0.78125 -4.015625 C 1.007812 -4.421875 1.316406 -4.734375 1.703125 -4.953125 C 2.097656 -5.179688 2.539062 -5.296875 3.03125 -5.296875 C 3.519531 -5.296875 3.957031 -5.179688 4.34375 -4.953125 C 4.726562 -4.734375 5.03125 -4.421875 5.25 -4.015625 C 5.46875 -3.609375 5.578125 -3.144531 5.578125 -2.625 Z M 3.03125 -4.6875 C 2.519531 -4.6875 2.09375 -4.523438 1.75 -4.203125 C 1.40625 -3.878906 1.210938 -3.457031 1.171875 -2.9375 L 4.90625 -2.9375 C 4.851562 -3.457031 4.65625 -3.878906 4.3125 -4.203125 C 3.96875 -4.523438 3.539062 -4.6875 3.03125 -4.6875 Z M 3.03125 -4.6875 "/></g></g><g style="fill:#ffffff;fill-opacity:1;"><g transform="translate(327.510614, 236.722674)"><path style="stroke:none" d="M 1.0625 0.046875 C 0.914062 0.046875 0.789062 -0.00390625 0.6875 -0.109375 C 0.582031 -0.210938 0.53125 -0.34375 0.53125 -0.5 C 0.53125 -0.65625 0.582031 -0.785156 0.6875 -0.890625 C 0.789062 -0.992188 0.914062 -1.046875 1.0625 -1.046875 C 1.207031 -1.046875 1.332031 -0.992188 1.4375 -0.890625 C 1.539062 -0.785156 1.59375 -0.65625 1.59375 -0.5 C 1.59375 -0.34375 1.539062 -0.210938 1.4375 -0.109375 C 1.332031 -0.00390625 1.207031 0.046875 1.0625 0.046875 Z M 1.0625 0.046875 "/></g></g><g style="fill:#ffffff;fill-opacity:1;"><g transform="translate(105.533465, 221.562787)"><path style="stroke:none" d="M 31.828125 0 L 5.484375 0 L 5.484375 -41.34375 L 31.125 -41.34375 L 31.125 -37.609375 L 9.6875 -37.609375 L 9.6875 -23.359375 L 29.71875 -23.359375 L 29.71875 -19.671875 L 9.6875 -19.671875 L 9.6875 -3.734375 L 31.828125 -3.734375 Z M 31.828125 0 "/></g></g><g style="fill:#ffffff;fill-opacity:1;"><g transform="translate(140.103043, 221.562787)"><path style="stroke:none" d="M 18.453125 -41.34375 L 22.53125 -41.34375 L 40.296875 0 L 35.625 0 L 31.0625 -10.859375 L 9.6875 -10.859375 L 5.203125 0 L 0.578125 0 Z M 20.375 -36.734375 L 11.265625 -14.71875 L 29.484375 -14.71875 Z M 20.375 -36.734375 "/></g></g><g style="fill:#ffffff;fill-opacity:1;"><g transform="translate(180.97923, 221.562787)"><path style="stroke:none" d="M 31.59375 0 L 1.8125 0 L 1.8125 -3.5 L 25.984375 -37.609375 L 2.453125 -37.609375 L 2.453125 -41.34375 L 31.234375 -41.34375 L 31.234375 -37.84375 L 7.125 -3.734375 L 31.59375 -3.734375 Z M 31.59375 0 "/></g></g><g style="fill:#ffffff;fill-opacity:1;"><g transform="translate(214.380915, 221.562787)"><path style="stroke:none" d="M 18.453125 -41.34375 L 22.53125 -41.34375 L 40.296875 0 L 35.625 0 L 31.0625 -10.859375 L 9.6875 -10.859375 L 5.203125 0 L 0.578125 0 Z M 20.375 -36.734375 L 11.265625 -14.71875 L 29.484375 -14.71875 Z M 20.375 -36.734375 "/></g></g><g style="fill:#ffffff;fill-opacity:1;"><g transform="translate(255.257103, 221.562787)"><path style="stroke:none" d="M 18.453125 -41.34375 L 22.53125 -41.34375 L 40.296875 0 L 35.625 0 L 31.0625 -10.859375 L 9.6875 -10.859375 L 5.203125 0 L 0.578125 0 Z M 20.375 -36.734375 L 11.265625 -14.71875 L 29.484375 -14.71875 Z M 20.375 -36.734375 "/></g></g><g style="fill:#ffffff;fill-opacity:1;"><g transform="translate(296.13329, 221.562787)"><path style="stroke:none" d="M 5.484375 0 L 5.484375 -41.34375 L 17.640625 -41.34375 C 21.992188 -41.34375 25.4375 -40.457031 27.96875 -38.6875 C 30.5 -36.914062 31.765625 -34.125 31.765625 -30.3125 C 31.765625 -28.320312 31.304688 -26.554688 30.390625 -25.015625 C 29.472656 -23.484375 28.21875 -22.269531 26.625 -21.375 C 25.03125 -20.476562 23.222656 -19.910156 21.203125 -19.671875 L 33.28125 0 L 28.140625 0 L 16.703125 -19.328125 L 9.6875 -19.328125 L 9.6875 0 Z M 16.984375 -22.953125 C 20.378906 -22.953125 22.988281 -23.570312 24.8125 -24.8125 C 26.644531 -26.0625 27.5625 -27.894531 27.5625 -30.3125 C 27.5625 -35.25 24.097656 -37.71875 17.171875 -37.71875 L 9.6875 -37.71875 L 9.6875 -22.953125 Z M 16.984375 -22.953125 "/></g></g></g></svg>