<svg xmlns="http://www.w3.org/2000/svg" xmlns:xlink="http://www.w3.org/1999/xlink" width="40" zoomAndPan="magnify" viewBox="0 0 30 30.000001" height="40" preserveAspectRatio="xMidYMid meet" version="1.2"><defs><clipPath id="4310c6a6f0"><path d="M 5 3 L 28.808594 3 L 28.808594 29.03125 L 5 29.03125 Z M 5 3 "/></clipPath><clipPath id="107c0c8c9d"><path d="M 1.226562 4 L 13 4 L 13 25 L 1.226562 25 Z M 1.226562 4 "/></clipPath></defs><g id="c96b921225"><path style=" stroke:none;fill-rule:nonzero;fill:#38b6ff;fill-opacity:1;" d="M 19.015625 6.269531 C 19.015625 6.40625 18.988281 6.535156 18.9375 6.660156 C 18.886719 6.785156 18.8125 6.894531 18.71875 6.988281 C 18.625 7.082031 18.511719 7.15625 18.390625 7.207031 C 18.265625 7.261719 18.136719 7.285156 18 7.285156 C 17.867188 7.285156 17.738281 7.261719 17.613281 7.207031 C 17.488281 7.15625 17.378906 7.082031 17.28125 6.988281 C 17.1875 6.894531 17.113281 6.785156 17.0625 6.660156 C 17.011719 6.535156 16.984375 6.40625 16.984375 6.269531 C 16.984375 6.136719 17.011719 6.007812 17.0625 5.882812 C 17.113281 5.757812 17.1875 5.648438 17.28125 5.554688 C 17.378906 5.457031 17.488281 5.386719 17.613281 5.332031 C 17.738281 5.28125 17.867188 5.257812 18 5.257812 C 18.136719 5.257812 18.265625 5.28125 18.390625 5.332031 C 18.511719 5.386719 18.625 5.457031 18.71875 5.554688 C 18.8125 5.648438 18.886719 5.757812 18.9375 5.882812 C 18.988281 6.007812 19.015625 6.136719 19.015625 6.269531 Z M 19.015625 6.269531 "/><path style=" stroke:none;fill-rule:nonzero;fill:#38b6ff;fill-opacity:1;" d="M 25 8.019531 C 25 8.15625 24.972656 8.285156 24.921875 8.410156 C 24.871094 8.535156 24.796875 8.644531 24.703125 8.738281 C 24.609375 8.832031 24.496094 8.90625 24.375 8.957031 C 24.25 9.011719 24.121094 9.035156 23.984375 9.035156 C 23.851562 9.035156 23.722656 9.011719 23.597656 8.957031 C 23.472656 8.90625 23.363281 8.832031 23.269531 8.738281 C 23.171875 8.644531 23.097656 8.535156 23.046875 8.410156 C 22.996094 8.285156 22.96875 8.15625 22.96875 8.019531 C 22.96875 7.886719 22.996094 7.757812 23.046875 7.632812 C 23.097656 7.507812 23.171875 7.398438 23.269531 7.304688 C 23.363281 7.207031 23.472656 7.136719 23.597656 7.082031 C 23.722656 7.03125 23.851562 7.007812 23.984375 7.007812 C 24.121094 7.007812 24.25 7.03125 24.375 7.082031 C 24.496094 7.136719 24.609375 7.207031 24.703125 7.304688 C 24.796875 7.398438 24.871094 7.507812 24.921875 7.632812 C 24.972656 7.757812 25 7.886719 25 8.019531 Z M 25 8.019531 "/><path style=" stroke:none;fill-rule:nonzero;fill:#38b6ff;fill-opacity:1;" d="M 24.183594 8.082031 L 23.765625 7.960938 L 24.785156 4.460938 C 25.015625 3.671875 24.941406 2.84375 24.578125 2.132812 C 24.214844 1.425781 23.605469 0.917969 22.867188 0.699219 C 22.128906 0.484375 21.34375 0.589844 20.65625 0.992188 C 19.96875 1.398438 19.460938 2.054688 19.230469 2.847656 L 18.210938 6.347656 L 17.796875 6.226562 L 18.8125 2.722656 C 19.074219 1.828125 19.652344 1.078125 20.4375 0.617188 C 21.226562 0.152344 22.132812 0.0351562 22.988281 0.285156 C 23.84375 0.535156 24.546875 1.121094 24.964844 1.933594 C 25.378906 2.746094 25.464844 3.683594 25.203125 4.582031 Z M 24.183594 8.082031 "/><g clip-rule="nonzero" clip-path="url(#4310c6a6f0)"><path style=" stroke:none;fill-rule:nonzero;fill:#38b6ff;fill-opacity:1;" d="M 28.292969 13.390625 C 28.351562 12.246094 28.496094 9.929688 28.5625 8.78125 C 28.5625 8.78125 28.648438 8.882812 28.648438 8.882812 L 26.636719 8.625 C 26.066406 8.558594 25.21875 8.382812 24.636719 8.285156 C 20.640625 7.558594 16.742188 6.285156 13.054688 4.582031 C 13.054688 4.582031 13.425781 4.429688 13.425781 4.429688 C 12.347656 7.476562 10.800781 11.894531 9.691406 14.984375 C 8.417969 18.492188 7.039062 21.957031 5.816406 25.480469 C 5.816406 25.480469 5.59375 25.125 5.59375 25.125 C 6.4375 25.222656 7.28125 25.324219 8.128906 25.433594 C 12.351562 25.949219 16.5625 26.609375 20.710938 27.582031 C 22.367188 27.96875 24.015625 28.417969 25.609375 29.003906 C 23.175781 28.242188 20.671875 27.761719 18.160156 27.324219 C 16.507812 27.023438 14.789062 26.746094 13.128906 26.539062 C 10.691406 26.226562 7.988281 25.925781 5.535156 25.660156 C 5.535156 25.660156 5.203125 25.625 5.203125 25.625 C 5.203125 25.625 5.308594 25.304688 5.308594 25.304688 C 6.484375 21.761719 7.863281 18.289062 9.121094 14.777344 C 10.292969 11.5625 11.851562 7.132812 13.015625 3.964844 C 16.738281 5.746094 20.660156 7.128906 24.699219 7.976562 C 25.269531 8.089844 26.109375 8.28125 26.679688 8.371094 C 26.679688 8.371094 28.671875 8.695312 28.671875 8.695312 C 28.671875 8.695312 28.765625 8.707031 28.765625 8.707031 C 28.644531 9.902344 28.417969 12.203125 28.292969 13.390625 Z M 28.292969 13.390625 "/></g><g clip-rule="nonzero" clip-path="url(#107c0c8c9d)"><path style=" stroke:none;fill-rule:nonzero;fill:#38b6ff;fill-opacity:1;" d="M 1.226562 22.523438 C 5 16.738281 8.707031 10.890625 12.15625 4.902344 L 4.324219 24.828125 C 4.324219 24.828125 1.226562 22.523438 1.226562 22.523438 Z M 1.226562 22.523438 "/></g><g style="fill:#ffffff;fill-opacity:1;"><g transform="translate(14.887222, 3.911293)"><path style="stroke:none" d="M 0.109375 0 C 0.0859375 0 0.0664062 -0.0078125 0.046875 -0.03125 C 0.0351562 -0.0390625 0.03125 -0.0546875 0.03125 -0.078125 C 0.0195312 -0.0859375 0.015625 -0.09375 0.015625 -0.09375 C 0.015625 -0.113281 0.0195312 -0.128906 0.03125 -0.140625 C 0.0390625 -0.160156 0.0546875 -0.175781 0.078125 -0.1875 C 0.0859375 -0.1875 0.0976562 -0.1875 0.109375 -0.1875 C 0.140625 -0.1875 0.164062 -0.175781 0.1875 -0.15625 C 0.195312 -0.144531 0.203125 -0.128906 0.203125 -0.109375 L 0.203125 -0.09375 C 0.203125 -0.0703125 0.195312 -0.0507812 0.1875 -0.03125 C 0.175781 -0.0195312 0.160156 -0.0078125 0.140625 0 C 0.128906 0 0.117188 0 0.109375 0 Z M 0.109375 0 "/></g></g></g></svg>